<?xml version="1.0" encoding="utf-8"?>
<!-- Generator: Adobe Illustrator 28.2.0, SVG Export Plug-In . SVG Version: 6.00 Build 0)  -->
<svg version="1.1" id="Layer_1" xmlns="http://www.w3.org/2000/svg" xmlns:xlink="http://www.w3.org/1999/xlink" x="0px" y="0px"
	 viewBox="0 0 2400 980" style="enable-background:new 0 0 2400 980;" xml:space="preserve">
<style type="text/css">
	.st0{fill:url(#SVGID_1_);}
	.st1{fill:url(#SVGID_00000083778592194652226220000000406736793253526462_);}
	.st2{fill:url(#SVGID_00000053504670541889954810000005964041066202973585_);}
	.st3{opacity:0.3;fill:#FF3874;enable-background:new    ;}
	.st4{fill:url(#SVGID_00000023969925775658285130000016150326342046765726_);}
	.st5{fill:url(#SVGID_00000130638891874315692620000017098092583474322345_);}
	.st6{fill:url(#SVGID_00000084509010271637233310000009017951000487823753_);}
	.st7{fill:url(#SVGID_00000080203142439457405290000008749960719972520088_);}
	.st8{fill:url(#SVGID_00000018196781704277140870000015992598638487227808_);}
	.st9{fill:url(#SVGID_00000110462107207182934870000010513406014200245903_);}
	.st10{fill:url(#SVGID_00000044877017671180129990000012147825932221468290_);}
	.st11{fill:#FFEDEB;}
	.st12{fill:url(#SVGID_00000051354151263668842480000008423451636165946031_);}
	.st13{fill:url(#SVGID_00000054955367885924455060000012094259539325151423_);}
	.st14{fill:url(#SVGID_00000101790330895557192150000007258518615201384078_);}
	.st15{fill:#FFD6DD;}
	.st16{fill:#FFF928;}
	.st17{fill:url(#SVGID_00000147908042415014147160000009111152954641243837_);}
	.st18{clip-path:url(#SVGID_00000037679340194047562870000003656994678539012026_);}
	.st19{clip-path:url(#SVGID_00000021819359446213179470000009698756215234715523_);}
	.st20{fill:url(#SVGID_00000178188541956587583180000001148970527317228983_);}
	.st21{fill:url(#SVGID_00000151544669809980822710000012663849413913540517_);}
	.st22{fill:url(#SVGID_00000085250441022754242780000003157617581375287984_);}
	.st23{fill:#F42834;}
	.st24{opacity:0.3;fill:#FF3B45;enable-background:new    ;}
	.st25{fill:#FC222B;}
	.st26{fill:url(#SVGID_00000163052342998689493760000005334915737562789031_);}
	.st27{fill:none;stroke:#FFFF45;stroke-width:2;stroke-miterlimit:10;}
	.st28{fill:none;stroke:#FFFFFF;stroke-width:3;stroke-miterlimit:10;}
	.st29{fill:none;stroke:#FFFF45;stroke-width:3;stroke-miterlimit:10;}
	.st30{fill:none;stroke:#FFFF45;stroke-miterlimit:10;}
	.st31{fill:#FFD225;}
	.st32{fill:url(#SVGID_00000011031791130782003110000017158793767401022901_);}
	.st33{fill:#FF95A9;}
	.st34{fill:#FFB9C4;}
	.st35{fill:url(#SVGID_00000175289921725803094490000001908883376829706636_);}
	.st36{fill:url(#SVGID_00000044139284658493693300000007299194235114401931_);}
	.st37{fill:url(#SVGID_00000118399404878935983730000006498387459566807698_);}
	.st38{fill:#38D2DA;}
	.st39{fill:none;stroke:url(#SVGID_00000084514903891052919900000011968877057730494873_);stroke-width:8;stroke-miterlimit:10;}
	.st40{fill:#3AD651;}
	.st41{fill:#7FE359;}
	.st42{fill:#7F0055;}
	.st43{fill:#890062;}
	.st44{fill:#E8E057;}
	.st45{fill:#0FE6D3;}
	.st46{fill:#FF3964;}
	.st47{fill:#FF4486;}
	.st48{fill:#FF2351;}
	.st49{fill:#FFE85D;}
	.st50{fill:#D4ADD4;}
	.st51{fill:#FFCC3D;}
	.st52{fill:#D3ADD5;}
	.st53{fill:#DE0059;}
	.st54{fill:#FF2452;}
	.st55{fill:#39D2DB;}
	.st56{fill:#FF3670;}
	.st57{fill:#E13687;}
	.st58{fill:#B0A6FF;}
	.st59{fill:#8A7EE4;}
	.st60{fill:#FFE85C;}
	.st61{fill:#FF0420;}
	.st62{opacity:0.45;fill:url(#SVGID_00000035504492837372669320000000129029485127110321_);enable-background:new    ;}
	.st63{opacity:0.45;fill:url(#SVGID_00000175283224592799939920000009439644289760066976_);enable-background:new    ;}
	.st64{fill:url(#SVGID_00000036239034446060901660000017319250280815304105_);}
	.st65{fill:url(#SVGID_00000116917867272910871330000003537998217267499912_);}
	.st66{fill:url(#SVGID_00000078765229827047249360000011635221219578161085_);}
	.st67{fill:url(#SVGID_00000150784116810681960610000005242370750965672097_);}
	.st68{fill:none;stroke:#F2AC64;stroke-width:2;stroke-miterlimit:10;}
	.st69{fill:none;stroke:#FFFFFF;stroke-width:4;stroke-miterlimit:10;}
	.st70{fill:none;stroke:#9DFE7C;stroke-width:7;stroke-miterlimit:10;}
	.st71{fill:none;stroke:#FFCB3D;stroke-width:6;stroke-miterlimit:10;}
	.st72{fill:none;stroke:#FFAE37;stroke-width:2;stroke-miterlimit:10;}
	.st73{fill:#FFEE41;}
	.st74{fill:#FFCB3D;}
	.st75{fill:#D3ADD4;}
	.st76{fill:#FF99A4;}
	.st77{fill:url(#SVGID_00000084517557607566482620000005946029105816266122_);}
	.st78{fill:url(#SVGID_00000142169182108614198830000002943548073062868883_);}
	.st79{fill:#FCE69C;}
	.st80{fill:#FF1D20;}
	.st81{fill:#FE8195;}
	.st82{fill:#FBFAAB;}
	.st83{fill:#FC829F;}
	.st84{fill:#F9E4B4;}
	.st85{fill:#F26400;}
	.st86{fill:#FEF5C6;}
	.st87{fill:#FEFD65;}
	.st88{fill:#FEECBD;}
	.st89{fill:#8F006A;}
	.st90{fill:url(#SVGID_00000010268516641363711960000001506450812505641888_);}
	.st91{fill:#FF7500;}
	.st92{fill:#FC2310;}
	.st93{fill:url(#SVGID_00000095312609790968722970000001602063561222979225_);}
</style>
<linearGradient id="SVGID_1_" gradientUnits="userSpaceOnUse" x1="1250.5654" y1="-500.7239" x2="1388.7612" y2="-295.4649" gradientTransform="matrix(1 0 0 1 0 910)">
	<stop  offset="0" style="stop-color:#FBDCE1"/>
	<stop  offset="1" style="stop-color:#DABEC3"/>
</linearGradient>
<rect x="1262.6" y="400" class="st0" width="88.4" height="185.6"/>
<linearGradient id="SVGID_00000096052949273889399100000011251712499175204018_" gradientUnits="userSpaceOnUse" x1="1513.1873" y1="-246.9428" x2="1516.5126" y2="-645.0021" gradientTransform="matrix(1 0 0 1 0 910)">
	<stop  offset="0" style="stop-color:#FEEE68"/>
	<stop  offset="0.1226" style="stop-color:#FEED6F"/>
	<stop  offset="0.3027" style="stop-color:#FDE983"/>
	<stop  offset="0.4033" style="stop-color:#FDE791"/>
	<stop  offset="0.6006" style="stop-color:#FCE4A8"/>
	<stop  offset="1" style="stop-color:#FADBE0"/>
</linearGradient>
<polygon style="fill:url(#SVGID_00000096052949273889399100000011251712499175204018_);" points="1592.9,669.2 1436.7,669.2 
	1436.7,270.8 1520.6,260.9 1508.4,512.7 1592.9,512.7 "/>
<linearGradient id="SVGID_00000137851650344375110070000002153794278724890004_" gradientUnits="userSpaceOnUse" x1="1174.5581" y1="-247.842" x2="1295.4075" y2="-156.4555" gradientTransform="matrix(1 0 0 1 0 910)">
	<stop  offset="0" style="stop-color:#C5ACB0"/>
	<stop  offset="1" style="stop-color:#B89FA4"/>
</linearGradient>
<polygon style="fill:url(#SVGID_00000137851650344375110070000002153794278724890004_);" points="1302.4,638.5 1289.7,777.3 
	1150.9,764.6 1163.6,625.8 "/>
<circle class="st3" cx="1467" cy="549.7" r="41.6"/>
<linearGradient id="SVGID_00000057829401698740246440000016754615757318799767_" gradientUnits="userSpaceOnUse" x1="1716.0809" y1="-208.7641" x2="1761.9801" y2="-124.2185" gradientTransform="matrix(1 0 0 1 0 910)">
	<stop  offset="0" style="stop-color:#D4AFCF"/>
	<stop  offset="0.1933" style="stop-color:#DAB9B8"/>
	<stop  offset="0.5966" style="stop-color:#E9D37E"/>
	<stop  offset="1" style="stop-color:#FAEF3E"/>
</linearGradient>
<polygon style="fill:url(#SVGID_00000057829401698740246440000016754615757318799767_);" points="1784.9,726.5 1749.7,787.5 
	1688.7,752.3 1723.9,691.3 "/>
<linearGradient id="SVGID_00000088849129327227612160000009335834967841277584_" gradientUnits="userSpaceOnUse" x1="1067.0353" y1="-229.1139" x2="1111.9797" y2="-144.0569" gradientTransform="matrix(1 0 0 1 0 910)">
	<stop  offset="0" style="stop-color:#FFD0D9"/>
	<stop  offset="1" style="stop-color:#FFD0D9"/>
</linearGradient>
<polygon style="fill:url(#SVGID_00000088849129327227612160000009335834967841277584_);" points="1139,713.2 1103.8,774.2 
	1042.8,738.9 1078,678 "/>
<linearGradient id="SVGID_00000144335475988964687030000011826759570381184658_" gradientUnits="userSpaceOnUse" x1="1273.8608" y1="-250.0691" x2="1282.7882" y2="-82.5024" gradientTransform="matrix(1 0 0 1 0 910)">
	<stop  offset="0" style="stop-color:#FFB9C4"/>
	<stop  offset="1" style="stop-color:#F4CC8F"/>
</linearGradient>
<circle style="fill:url(#SVGID_00000144335475988964687030000011826759570381184658_);" cx="1278.1" cy="739.5" r="83.9"/>
<linearGradient id="SVGID_00000173840602340714531330000005667147559806998920_" gradientUnits="userSpaceOnUse" x1="1287.6927" y1="-445.3202" x2="1355.0453" y2="-332.7223" gradientTransform="matrix(1 0 0 1 0 910)">
	<stop  offset="0" style="stop-color:#D3ADD5"/>
	<stop  offset="1" style="stop-color:#EE4262"/>
</linearGradient>
<polygon style="fill:url(#SVGID_00000173840602340714531330000005667147559806998920_);" points="1362.6,500.2 1326.2,558.2 
	1268.2,521.8 1304.6,463.8 "/>
<linearGradient id="SVGID_00000109729913738084920320000007154341343007477434_" gradientUnits="userSpaceOnUse" x1="2220.8408" y1="-138.1662" x2="2298.479" y2="-45.6898" gradientTransform="matrix(1.6164 3.210679e-02 4.941132e-02 1.0027 -2593.5637 775.8832)">
	<stop  offset="0" style="stop-color:#FBDCE1"/>
	<stop  offset="0.9299" style="stop-color:#FCE4B0"/>
	<stop  offset="0.9592" style="stop-color:#FCE4B0"/>
</linearGradient>
<polygon style="fill:url(#SVGID_00000109729913738084920320000007154341343007477434_);" points="1156.1,728.2 1151.7,776.1 
	938.9,774.2 942.6,714.7 "/>
<linearGradient id="SVGID_00000021087051960948742120000011584209290988739760_" gradientUnits="userSpaceOnUse" x1="1301.8501" y1="-530.7688" x2="1301.8501" y2="-217.9112" gradientTransform="matrix(1 0 0 1 0 910)">
	<stop  offset="0" style="stop-color:#FE598E"/>
	<stop  offset="0.48" style="stop-color:#F58A78"/>
	<stop  offset="1" style="stop-color:#EAB661"/>
</linearGradient>
<polygon style="fill:url(#SVGID_00000021087051960948742120000011584209290988739760_);" points="1345.3,696.6 1258.4,696.6 
	1258.4,558.9 1323.3,557.8 1323.3,371.3 1345.3,371.3 "/>
<linearGradient id="SVGID_00000029730842250002471580000010424309256504044729_" gradientUnits="userSpaceOnUse" x1="1395.9971" y1="-86.2005" x2="1718.5105" y2="-215.03" gradientTransform="matrix(1 0 0 1 0 910)">
	<stop  offset="0.5667" style="stop-color:#FE748B"/>
	<stop  offset="1" style="stop-color:#F6C1CA"/>
</linearGradient>
<circle style="fill:url(#SVGID_00000029730842250002471580000010424309256504044729_);" cx="1545.7" cy="764" r="173.6"/>
<rect x="1314.3" y="267.6" transform="matrix(0.866 -0.5 0.5 0.866 35.3553 705.0162)" class="st11" width="37.9" height="37.9"/>
<linearGradient id="SVGID_00000097471454996629150070000005292937663959993220_" gradientUnits="userSpaceOnUse" x1="1560.4154" y1="-236.345" x2="1603.7939" y2="-151.855" gradientTransform="matrix(1 0 0 1 0 910)">
	<stop  offset="0" style="stop-color:#EEC55D"/>
	<stop  offset="1" style="stop-color:#E9DB57"/>
</linearGradient>
<polygon style="fill:url(#SVGID_00000097471454996629150070000005292937663959993220_);" points="1613.3,672.9 1613.3,743.3 
	1542.9,743.3 1542.9,672.9 "/>
<linearGradient id="SVGID_00000177468743654891934790000006031399166697704845_" gradientUnits="userSpaceOnUse" x1="1618.2268" y1="-180.2951" x2="1618.7427" y2="-161.0465" gradientTransform="matrix(1 0 0 1 0 910)">
	<stop  offset="0" style="stop-color:#FF90A5"/>
	<stop  offset="1" style="stop-color:#FF6683"/>
</linearGradient>
<circle style="fill:url(#SVGID_00000177468743654891934790000006031399166697704845_);" cx="1620.1" cy="799.6" r="82.5"/>
<linearGradient id="SVGID_00000168117779471628149960000010393765530439229345_" gradientUnits="userSpaceOnUse" x1="1490.85" y1="-379.3068" x2="1490.85" y2="-276.8403" gradientTransform="matrix(1 0 0 1 0 910)">
	<stop  offset="0" style="stop-color:#F6926B"/>
	<stop  offset="0.6783" style="stop-color:#F1A965"/>
	<stop  offset="1" style="stop-color:#EFB562"/>
</linearGradient>
<rect x="1449.1" y="525.6" style="fill:url(#SVGID_00000168117779471628149960000010393765530439229345_);" width="83.5" height="111.4"/>
<polygon class="st15" points="1875.5,732 1884.5,720.3 1889.5,734.2 1901.2,743.2 1887.3,748.2 1878.2,759.9 1873.3,746 
	1861.6,736.9 "/>
<path class="st16" d="M2174.7,770.3c-296.2-3.5-508.8,0.5-742.9,0.5s-632.2-3.2-689.8-2.1c131.6-15.8,383.8-33.7,689.8-33.7
	C1665.9,735,1917.2,741.2,2174.7,770.3z"/>
<linearGradient id="SVGID_00000149344934816666022730000010313661765355808154_" gradientUnits="userSpaceOnUse" x1="1512.4133" y1="-175.3678" x2="1510.3849" y2="-100.9688" gradientTransform="matrix(1 0 0 1 0 910)">
	<stop  offset="0.1116" style="stop-color:#E8E056"/>
	<stop  offset="1" style="stop-color:#E8E056"/>
</linearGradient>
<path style="fill:url(#SVGID_00000149344934816666022730000010313661765355808154_);" d="M2451.1,783.6
	c-388.6-3.5-667.7,0.5-974.8,0.5s-829.5-3.2-905.2-2.1c172.7-15.8,503.5-33.7,905.2-33.7C1783.5,748.3,2113.2,754.5,2451.1,783.6z"
	/>
<g>
	<g>
		<g>
			<g>
				<defs>
					<polygon id="SVGID_00000081646097308960556030000011962632971657470107_" points="1314,814.6 1320.1,898.8 1508.8,898.6 
						1514.9,815.5 					"/>
				</defs>
				<clipPath id="SVGID_00000036252353947284247150000013410057584122581942_">
					<use xlink:href="#SVGID_00000081646097308960556030000011962632971657470107_"  style="overflow:visible;"/>
				</clipPath>
				<g style="clip-path:url(#SVGID_00000036252353947284247150000013410057584122581942_);">
					<g>
						<g>
							<g>
								<defs>
									<rect id="SVGID_00000103960140383315031540000001164112876752010900_" x="1309" y="809.6" width="210.9" height="94.2"/>
								</defs>
								<clipPath id="SVGID_00000021085781012625867490000000808412154726227123_">
									<use xlink:href="#SVGID_00000103960140383315031540000001164112876752010900_"  style="overflow:visible;"/>
								</clipPath>
								<g style="clip-path:url(#SVGID_00000021085781012625867490000000808412154726227123_);">
								</g>
							</g>
						</g>
					</g>
				</g>
			</g>
		</g>
	</g>
</g>
<radialGradient id="SVGID_00000039815952507951331840000005919014716600334758_" cx="1239.6205" cy="-9.3279" r="137.7765" fx="1365.1741" fy="42.6175" gradientTransform="matrix(1 0 0 1 0 910)" gradientUnits="userSpaceOnUse">
	<stop  offset="0" style="stop-color:#FF571E"/>
	<stop  offset="0.2684" style="stop-color:#FF551D"/>
	<stop  offset="0.3651" style="stop-color:#FD4E1A"/>
	<stop  offset="0.434" style="stop-color:#FB4316"/>
	<stop  offset="0.4897" style="stop-color:#F8320F"/>
	<stop  offset="0.5369" style="stop-color:#F41C06"/>
	<stop  offset="0.5556" style="stop-color:#F21101"/>
	<stop  offset="0.6967" style="stop-color:#D80C10"/>
	<stop  offset="0.8911" style="stop-color:#B90521"/>
	<stop  offset="1" style="stop-color:#AD0327"/>
</radialGradient>
<polygon style="fill:url(#SVGID_00000039815952507951331840000005919014716600334758_);" points="1315.1,814.9 1321.2,899.5 
	961.6,897.7 1280.6,758.7 "/>
<radialGradient id="SVGID_00000052806766419380008820000018278609203569093288_" cx="1553.9795" cy="-40.4688" r="120.3054" fx="1603.5256" fy="-45.4206" gradientTransform="matrix(1 0 0 1 0 910)" gradientUnits="userSpaceOnUse">
	<stop  offset="0" style="stop-color:#FE7848"/>
	<stop  offset="0.2338" style="stop-color:#F6351A"/>
	<stop  offset="0.374" style="stop-color:#F21101"/>
	<stop  offset="0.5824" style="stop-color:#D60A10"/>
	<stop  offset="0.8501" style="stop-color:#B70320"/>
	<stop  offset="1" style="stop-color:#AB0026"/>
</radialGradient>
<polygon style="fill:url(#SVGID_00000052806766419380008820000018278609203569093288_);" points="1508.8,899 1515.3,815.2 
	1555.7,760.7 1869.2,897.5 "/>
<linearGradient id="SVGID_00000000931740861568545250000013372762076032233878_" gradientUnits="userSpaceOnUse" x1="1392.2163" y1="-162.0569" x2="1385.7406" y2="75.4473" gradientTransform="matrix(1 0 0 1 0 910)">
	<stop  offset="0" style="stop-color:#FF2453"/>
	<stop  offset="0.4901" style="stop-color:#FF478C"/>
	<stop  offset="0.5638" style="stop-color:#FF4F89"/>
	<stop  offset="0.6779" style="stop-color:#FF6582"/>
	<stop  offset="0.8184" style="stop-color:#FF8975"/>
	<stop  offset="0.9784" style="stop-color:#FFBA64"/>
	<stop  offset="1" style="stop-color:#FFC162"/>
</linearGradient>
<polygon style="fill:url(#SVGID_00000000931740861568545250000013372762076032233878_);" points="771.3,825 946.4,797.8 1016.6,799 
	1104.1,781.6 1219.5,783.3 960.2,900.4 1876.5,901 1606.2,782.7 1741.3,783.9 1778.9,792 1842.7,791.4 2006.5,816.9 1832.3,818.7 
	2263.6,912.6 1807.9,912.6 1950,980.4 1655.5,979.8 1621.8,946.8 1351.7,946.2 1359.2,920.7 1173.7,922.4 1116.9,968.2 902.9,967.7 
	1019.5,910.8 828.1,906.8 769,923.6 511.6,921.9 969,825 "/>
<polygon class="st23" points="1274,759.5 955.6,896.9 966,897.5 1280.3,759.5 "/>
<polygon class="st24" points="1319,898.4 1313.4,814.9 1515.1,815.2 1508.8,898.4 "/>
<polygon class="st25" points="1558.9,759.5 1879.5,896.9 1869.1,897.5 1552.5,759.5 "/>
<linearGradient id="SVGID_00000067216541891835694970000005144051860803693958_" gradientUnits="userSpaceOnUse" x1="1418.447" y1="-155.6027" x2="1417.754" y2="-93.2816" gradientTransform="matrix(1 0 0 1 0 910)">
	<stop  offset="7.843422e-02" style="stop-color:#AC055F"/>
	<stop  offset="0.2689" style="stop-color:#C2154C"/>
	<stop  offset="0.6004" style="stop-color:#E62F2E"/>
	<stop  offset="0.6106" style="stop-color:#E7302D"/>
	<stop  offset="0.8603" style="stop-color:#F54F20"/>
	<stop  offset="1" style="stop-color:#FA5B1B"/>
</linearGradient>
<path style="fill:url(#SVGID_00000067216541891835694970000005144051860803693958_);" d="M1279.5,758.7l34.5,56.2l201.8,0.3
	l41.5-56.5C1557.2,758.7,1278.7,757.9,1279.5,758.7z"/>
<polyline class="st27" points="1328.2,898.4 1321.2,822.4 1508.8,823.6 1500.9,898.5 "/>
<polyline class="st28" points="1567.6,897.8 1487,882.2 1480.7,898.1 "/>
<polyline class="st29" points="1507.6,898.7 1514.9,816.3 1314,815.5 1320.5,898.4 "/>
<polyline class="st30" points="1334,898.1 1328.5,834.9 1504.1,830.3 1496.3,898.4 "/>
<path class="st28" d="M1239.9,898.1c0.9,0,107.7-16.8,107.7-16.8l0.6,17.1"/>
<polygon class="st31" points="1881.9,901 953.8,900.4 965.9,897.4 1868.4,897.5 "/>
<linearGradient id="SVGID_00000025413372961355196110000013588137769247146653_" gradientUnits="userSpaceOnUse" x1="1276.1621" y1="-198.8129" x2="1276.3094" y2="-147.4662" gradientTransform="matrix(1 0 0 1 0 910)">
	<stop  offset="0" style="stop-color:#FF519D"/>
	<stop  offset="0.4433" style="stop-color:#E20F6B"/>
</linearGradient>
<path style="fill:url(#SVGID_00000025413372961355196110000013588137769247146653_);" d="M1276.3,759.3h-51.2
	c0-28.1,23.1-51.2,51.2-51.2s51.2,23.1,51.2,51.2H1276.3z"/>
<path class="st33" d="M1788.4,762.5h-16.5c0-9,7.4-16.5,16.5-16.5s16.5,7.4,16.5,16.5H1788.4z"/>
<path class="st34" d="M1977.3,774.5h-10.7c0-5.9,4.9-10.7,10.7-10.7s10.7,4.9,10.7,10.7H1977.3z"/>
<linearGradient id="SVGID_00000108311537318317676020000009813240041452402353_" gradientUnits="userSpaceOnUse" x1="1215.7809" y1="-164.4995" x2="1215.8005" y2="-143.1021" gradientTransform="matrix(1 0 0 1 0 910)">
	<stop  offset="0" style="stop-color:#D3ADD4"/>
	<stop  offset="1" style="stop-color:#DDC697"/>
</linearGradient>
<path style="fill:url(#SVGID_00000108311537318317676020000009813240041452402353_);" d="M1215.8,766.4h-21.4
	c0-11.7,9.7-21.4,21.4-21.4c11.7,0,21.4,9.7,21.4,21.4H1215.8z"/>
<linearGradient id="SVGID_00000096761966730799014070000006279811029387491498_" gradientUnits="userSpaceOnUse" x1="1167.5857" y1="-186.959" x2="1169.4471" y2="-156.2604" gradientTransform="matrix(1 0 0 1 0 910)">
	<stop  offset="0" style="stop-color:#FF95A9"/>
	<stop  offset="1" style="stop-color:#FF95A9"/>
</linearGradient>
<path style="fill:url(#SVGID_00000096761966730799014070000006279811029387491498_);" d="M1169.2,750.1h-29c0-15.9,13.1-29,29-29
	s29,13.1,29,29H1169.2z"/>
<linearGradient id="SVGID_00000107559523226503110140000015039433138047009452_" gradientUnits="userSpaceOnUse" x1="1619.417" y1="-168.0123" x2="1619.5032" y2="-154.5079" gradientTransform="matrix(1 0 0 1 0 910)">
	<stop  offset="0" style="stop-color:#FF529D"/>
	<stop  offset="0.3736" style="stop-color:#FF529D"/>
</linearGradient>
<path style="fill:url(#SVGID_00000107559523226503110140000015039433138047009452_);" d="M1619.5,755h-26.7c0-7.3,12-13.3,26.7-13.3
	c14.6,0,26.7,6,26.7,13.3H1619.5z"/>
<path class="st38" d="M919.1,904.2v-34l0,0c-7.8,0-29.7,15-29.7,34H919.1z"/>
<linearGradient id="SVGID_00000031928623484525635480000018335174280356283532_" gradientUnits="userSpaceOnUse" x1="851.9005" y1="-114.7613" x2="852.6096" y2="-3.698" gradientTransform="matrix(1 0 0 1 0 910)">
	<stop  offset="0" style="stop-color:#FF0202"/>
	<stop  offset="0.1672" style="stop-color:#ECBAA7"/>
	<stop  offset="0.1722" style="stop-color:#EABAA7"/>
	<stop  offset="0.2989" style="stop-color:#B0C6B3"/>
	<stop  offset="0.4257" style="stop-color:#7FD0BD"/>
	<stop  offset="0.55" style="stop-color:#57D8C5"/>
	<stop  offset="0.6713" style="stop-color:#37DECB"/>
	<stop  offset="0.7885" style="stop-color:#21E2CF"/>
	<stop  offset="0.9001" style="stop-color:#14E5D2"/>
	<stop  offset="1" style="stop-color:#0FE6D3"/>
</linearGradient>
<path style="fill:none;stroke:url(#SVGID_00000031928623484525635480000018335174280356283532_);stroke-width:8;stroke-miterlimit:10;" d="
	M876.4,798.5c-15.4,9.5-55.9,39.1-44.5,107.3"/>
<path class="st40" d="M1792.5,851.7c-1.2,0.7-2.5,1-3.8,1c0.2-4.5,2.5-8.7,6.6-11.1C1797.2,845.2,1796,849.6,1792.5,851.7z"/>
<path class="st40" d="M1785.4,852c1.2,0.6,2.5,0.8,3.7,0.6c-0.3-4.6-2.7-8.7-6.8-10.7C1780.6,845.8,1781.9,850.3,1785.4,852z"/>
<path class="st41" d="M1824,854.3c-3.7,2.1-7.7,3.1-11.6,3.1c0.5-13.8,7.7-26.9,20.3-34.3C1838.6,834.2,1834.8,847.9,1824,854.3z"/>
<path class="st41" d="M1802.3,855.2c3.6,1.8,7.6,2.3,11.4,1.9c-0.9-14.1-8.4-26.8-21-32.9C1787.4,836.2,1791.6,850,1802.3,855.2z"/>
<path class="st42" d="M1556.2,750.7c-1.1,2.9-1.8,5.8-2,8.5c6.2-3.4,12.4-11.2,16.4-21.4C1565.9,736.4,1559.6,742,1556.2,750.7z"/>
<path class="st42" d="M1561.2,759c-3.1,0.2-6.1-0.2-8.7-0.8c5.2-4.8,14.6-8.2,25.5-8.8C1577.8,754.3,1570.5,758.6,1561.2,759z"/>
<path class="st43" d="M1272.2,756.9c3.8,0.5,7.5,0.5,10.7-0.1c-5.9-6.4-17-11.6-30.3-13.5C1252.3,749.3,1260.9,755.3,1272.2,756.9z"
	/>
<path class="st43" d="M1280.7,748.5c1.1,3.7,1.6,7.3,1.5,10.6c-7.2-4.9-14.1-15.1-17.8-27.9C1270.3,729.9,1277.5,737.5,1280.7,748.5
	z"/>
<path class="st44" d="M734.7,775.8v-21.1l0,0c-7.1,0-19.6,9.3-19.6,21.1H734.7z"/>
<path class="st44" d="M696.2,775.8v-21.1l0,0c10.3,0,18.9,9.3,18.9,21.1H696.2z"/>
<path class="st38" d="M919.1,904.2v-34l0,0c-7.8,0-29.7,15-29.7,34H919.1z"/>
<path class="st38" d="M860.1,902.4v-34l0,0c7.8,0,29.7,15,29.7,34H860.1z"/>
<path class="st45" d="M2058.6,899v-70.4l0,0c-14.3,0-54.5,31.2-54.5,70.4H2058.6z"/>
<path class="st38" d="M711,904.1v-36.6l0,0c17.9,0,32.7,16.5,32.7,36.6H711z"/>
<path class="st38" d="M930,916.7v-18.6l0,0c9.1,0,16.6,8.4,16.6,18.6H930z"/>
<path class="st38" d="M962.8,916.7v-18.6l0,0c-9.1,0-16.6,8.4-16.6,18.6H962.8z"/>
<path class="st45" d="M2058.6,899v-70.4l0,0c-14.3,0-54.5,31.2-54.5,70.4H2058.6z"/>
<path class="st45" d="M1949.7,899v-70.4l0,0c14.3,0,54.5,31.2,54.5,70.4H1949.7z"/>
<path class="st45" d="M897.7,907.4v-74.2l0,0c-17.8,0-67.8,32.9-67.8,74.2H897.7z"/>
<path class="st45" d="M762.1,907.4v-74.2l0,0c17.8,0,67.8,32.9,67.8,74.2H762.1z"/>
<path class="st46" d="M1716.1,784.8v-39.5l0,0c-8,0-30.5,17.5-30.5,39.5H1716.1z"/>
<path class="st46" d="M1655.1,784.8v-39.5l0,0c8,0,30.5,17.5,30.5,39.5H1655.1z"/>
<path class="st47" d="M1742,785.2V765l0,0c-4.1,0-15.6,9-15.6,20.2H1742z"/>
<path class="st47" d="M1710.7,785.2V765l0,0c4.1,0,15.6,9,15.6,20.2H1710.7z"/>
<path class="st47" d="M1669.5,785.2v-17.4l0,0c-3.5,0-13.5,7.7-13.5,17.4H1669.5z"/>
<path class="st47" d="M1642.6,785.2v-17.4l0,0c3.5,0,13.5,7.7,13.5,17.4H1642.6z"/>
<path class="st48" d="M1110.2,786.2v-22.1l0,0c5.1,0,19.4,9.8,19.4,22.1H1110.2z"/>
<path class="st48" d="M1147.1,786.2v-22.1l0,0c-5.1,0-19.4,9.8-19.4,22.1H1147.1z"/>
<path class="st38" d="M1982.3,902.2V869l0,0c-6.7,0-25.6,14.7-25.6,33.2H1982.3z"/>
<path class="st38" d="M1931,902.2V869l0,0c6.7,0,25.6,14.7,25.6,33.2H1931z"/>
<path class="st49" d="M1747.8,743.7v-7.3l0,0c-1.5,0-5.6,3.2-5.6,7.3H1747.8z"/>
<path class="st16" d="M1745,745.3v-13.9l0,0c2.8,0,10.7,6.2,10.7,13.9H1745z"/>
<path class="st50" d="M1842,749.5v-6.6l0,0c-1.3,0-5.1,2.9-5.1,6.6H1842z"/>
<path class="st50" d="M1831.7,749.5v-6.6l0,0c1.3,0,5.1,2.9,5.1,6.6H1831.7z"/>
<path class="st38" d="M1924.3,907.1v-17.9l0,0c-3.6,0-13.8,7.9-13.8,17.9H1924.3z"/>
<path class="st38" d="M1896.6,907.1v-17.9l0,0c3.6,0,13.8,7.9,13.8,17.9H1896.6z"/>
<path class="st38" d="M777.8,904.2v-36.7l0,0c-12.4,0-34,16.3-34,36.7H777.8z"/>
<path class="st38" d="M710.9,904.2v-36.7l0,0c17.9,0,32.9,16.3,32.9,36.7H710.9z"/>
<path class="st16" d="M1766.4,745.3v-13.9l0,0c-2.8,0-10.7,6.2-10.7,13.9H1766.4z"/>
<path class="st49" d="M1736.5,743.7v-7.3l0,0c1.5,0,5.6,3.2,5.6,7.3H1736.5z"/>
<path class="st51" d="M1734.8,748.4v-4.3l0,0c-0.9,0-3.3,1.9-3.3,4.3H1734.8z"/>
<path class="st51" d="M1728.2,748.4v-4.3l0,0c0.9,0,3.3,1.9,3.3,4.3H1728.2z"/>
<path class="st48" d="M1097.7,786.2v-10.1l0,0c2.3,0,8.8,4.5,8.8,10.1H1097.7z"/>
<path class="st48" d="M1114.6,786.2v-10.1l0,0c-2.3,0-8.8,4.5-8.8,10.1H1114.6z"/>
<path class="st48" d="M1135.1,786.2v-10.1l0,0c2.3,0,8.8,4.5,8.8,10.1H1135.1z"/>
<path class="st48" d="M1152,786.2v-10.1l0,0c-2.3,0-8.8,4.5-8.8,10.1H1152z"/>
<path class="st48" d="M1163.2,785.6v-6.7l0,0c1.5,0,5.8,3,5.8,6.7H1163.2z"/>
<path class="st48" d="M1174.3,785.6v-6.7l0,0c-1.5,0-5.8,3-5.8,6.7H1174.3z"/>
<path class="st16" d="M699.5,778.4v-10.2l0,0c-3.5,0-9.5,4.5-9.5,10.2H699.5z"/>
<path class="st16" d="M680.8,778.4v-10.2l0,0c5,0,9.2,4.5,9.2,10.2H680.8z"/>
<path class="st16" d="M741.7,776.8v-9.1l0,0c-3.1,0-8.5,4-8.5,9.1H741.7z"/>
<path class="st16" d="M725,776.8v-9.1l0,0c4.5,0,8.2,4,8.2,9.1H725z"/>
<path class="st52" d="M1000,763.6c-1.1,1.5-2.5,2.6-4.1,3.3c-2.2-5.6-1.5-12.1,2.3-17.3C1002.4,753,1003.3,759.2,1000,763.6z"/>
<path class="st52" d="M991.1,767.8c1.8,0.1,3.6-0.3,5.1-1.1c-3-5.2-8.4-8.8-14.8-9.1C981.4,763,985.6,767.5,991.1,767.8z"/>
<path class="st38" d="M1059,844.2c-2.2,1.3-4.6,1.9-6.9,1.9c0.3-8.1,4.7-15.9,12.2-20.4C1067.7,832.2,1065.4,840.4,1059,844.2z"/>
<path class="st38" d="M1045.6,844.6c2.3,1.1,4.7,1.5,7,1.4c-0.9-8.1-5.8-15.6-13.7-19.4C1036,833.4,1038.9,841.3,1045.6,844.6z"/>
<path class="st53" d="M899.2,770.1c-5.1,2.3-10.5,3-15.7,2.5c2.7-17.9,14.2-34,31.9-41.9C921.3,745.9,914.3,763.3,899.2,770.1z"/>
<path class="st53" d="M869.4,767.8c4.7,3,10,4.5,15.2,4.8c0-18.1-9-35.8-25.4-46.2C851,740.6,855.4,758.9,869.4,767.8z"/>
<path class="st54" d="M1206.3,784.3c-2.6,1.5-5.5,2.2-8.3,2.2c0.3-9.8,5.5-19.3,14.5-24.6C1216.7,769.9,1214.1,779.8,1206.3,784.3z"
	/>
<path class="st54" d="M1190.8,785c2.6,1.3,5.4,1.7,8.2,1.4c-0.7-10.1-6-19.2-15-23.6C1180.1,771.4,1183.1,781.2,1190.8,785z"/>
<path class="st54" d="M1222.5,784.1c-1.8,1-3.7,1.5-5.6,1.5c0.2-6.7,3.7-13,9.8-16.6C1229.6,774.4,1227.7,781.1,1222.5,784.1z"/>
<path class="st54" d="M1212,784.6c1.8,0.9,3.7,1.1,5.5,0.9c-0.5-6.8-4.1-12.9-10.2-15.9C1204.8,775.4,1206.8,782,1212,784.6z"/>
<path class="st40" d="M1844.9,865.4c-2.8,1.6-5.9,2.4-8.9,2.4c0.4-10.5,5.9-20.6,15.6-26.3C1856,850,1853.2,860.6,1844.9,865.4z"/>
<path class="st40" d="M1828.3,866.2c2.8,1.4,5.8,1.8,8.8,1.5c-0.7-10.8-6.5-20.5-16.1-25.2C1816.9,851.6,1820,862.1,1828.3,866.2z"
	/>
<path class="st55" d="M1876.6,833.8c-1.3,0.8-2.8,1.1-4.2,1.1c0.2-5,2.8-9.7,7.3-12.4C1881.9,826.6,1880.5,831.5,1876.6,833.8z"/>
<path class="st55" d="M1868.8,834.2c1.3,0.6,2.7,0.8,4.1,0.7c-0.3-5.1-3-9.7-7.6-11.9C1863.4,827.3,1864.9,832.3,1868.8,834.2z"/>
<path class="st55" d="M1810.4,815.2c-1.3,0.8-2.8,1.1-4.2,1.1c0.2-5,2.8-9.7,7.3-12.4C1815.7,807.9,1814.3,812.9,1810.4,815.2z"/>
<path class="st55" d="M1802.6,815.5c1.3,0.6,2.7,0.8,4.1,0.7c-0.3-5.1-3-9.7-7.6-11.9C1797.2,808.7,1798.7,813.6,1802.6,815.5z"/>
<path class="st56" d="M1876.6,772.5c6.2,6.2,30.4,32.9,34.3,35.3C1911.6,799.6,1894.6,774.3,1876.6,772.5z"/>
<path class="st56" d="M1942.3,772.5c-6.2,6.2-30.4,32.9-34.3,35.3C1907.3,799.6,1924.2,774.3,1942.3,772.5z"/>
<path class="st57" d="M1910.9,790.6c3,3,14.8,16.1,16.8,17.2C1928,803.8,1919.7,791.4,1910.9,790.6z"/>
<path class="st57" d="M1944.5,790.6c-3,3-14.8,16.1-16.8,17.2C1927.4,803.8,1935.7,791.4,1944.5,790.6z"/>
<path class="st58" d="M2018.7,755.3c2.7,2.7,13.4,14.5,15.1,15.5C2034,767.2,2026.6,756,2018.7,755.3z"/>
<path class="st58" d="M2048.8,755.3c-2.7,2.7-13.4,14.5-15.1,15.5C2033.5,767.2,2040.9,756,2048.8,755.3z"/>
<path class="st59" d="M2019,763.7c1.3,1.3,6.5,7.1,7.4,7.6C2026.5,769.5,2022.9,764.1,2019,763.7z"/>
<path class="st59" d="M2033.8,763.7c-1.3,1.3-6.5,7.1-7.4,7.6C2026.2,769.5,2029.9,764.1,2033.8,763.7z"/>
<path class="st59" d="M2048,765.7c1,1,4.8,5.2,5.4,5.6C2053.5,770,2050.8,766,2048,765.7z"/>
<path class="st59" d="M2058.9,765.7c-1,1-4.8,5.2-5.4,5.6C2053.3,770,2056,766,2058.9,765.7z"/>
<path class="st60" d="M1059,779.6c6.2,6.2,30.4,32.9,34.3,35.3C1093.9,806.7,1077,781.3,1059,779.6z"/>
<path class="st60" d="M1127.6,779.6c-6.2,6.2-30.4,32.9-34.3,35.3C1092.7,806.7,1109.6,781.3,1127.6,779.6z"/>
<path class="st61" d="M835.3,744.5c7.5,9.9,35.9,52.3,40.9,56.5C878.8,789.6,860.2,750.6,835.3,744.5z"/>
<path class="st61" d="M932.7,761.8c-10.4,6.8-51.4,37.1-57.6,39.3C876.5,789.5,907.1,759.1,932.7,761.8z"/>
<path class="st51" d="M1096,796c3.4,3.4,16.8,18.1,18.9,19.5C1115.3,810.9,1106,796.9,1096,796z"/>
<path class="st51" d="M1133.9,796c-3.4,3.4-16.8,18.1-18.9,19.5C1114.6,810.9,1124,796.9,1133.9,796z"/>
<path class="st51" d="M1034.4,802.6c2.3,2.2,11,12,12.5,12.8C1047.1,812.4,1040.9,803.2,1034.4,802.6z"/>
<path class="st51" d="M1059.4,802.6c-2.3,2.2-11,12-12.5,12.8C1046.6,812.4,1052.8,803.2,1059.4,802.6z"/>
<path class="st56" d="M1976.3,804c2.1,2,10,10.9,11.3,11.7C1987.8,812.9,1982.2,804.5,1976.3,804z"/>
<path class="st56" d="M1999,804c-2.1,2-10,10.9-11.3,11.7C1987.4,812.9,1993,804.5,1999,804z"/>
<polygon class="st61" points="1341.3,644.3 1341.3,594.4 1344.8,594.4 1344.8,490.1 1334.9,490.1 1334.9,411 1342.5,411 
	1342.5,325.4 1337.8,325.4 1337.8,215.1 1334.9,215.1 1334.9,110.4 1344.5,110.4 1344.5,-171 1388.3,-171 1388.3,-250.8 
	1403.3,-250.8 1403.3,-193.9 1418.2,-193.9 1418.2,-174.6 1440.4,-174.6 1440.4,-98.8 1471.1,-98.8 1471.1,-72 1491.1,-72 
	1491.1,83.4 1495.8,83.4 1495.8,187.2 1491,187.2 1491,194.8 1485.9,194.8 1485.9,297.5 1475.4,297.5 1475.4,381.7 1483.6,381.5 
	1483.6,463.9 1468.5,463.9 1468.5,567.7 1485.9,567.7 1485.9,640.1 "/>
<polygon class="st61" points="1341.3,644.3 1341.3,594.4 1344.8,594.4 1344.8,490.1 1334.9,490.1 1334.9,411 1342.5,411 
	1342.5,325.4 1337.8,325.4 1337.8,215.1 1334.9,215.1 1334.9,110.4 1344.5,110.4 1344.5,-171 1388.3,-171 1388.3,-250.8 
	1403.3,-250.8 1403.3,-193.9 1418.2,-193.9 1418.2,-174.6 1440.4,-174.6 1440.4,-98.8 1471.1,-98.8 1471.1,-72 1491.1,-72 
	1491.1,83.4 1495.8,83.4 1495.8,187.2 1491,187.2 1491,194.8 1485.9,194.8 1485.9,297.5 1475.4,297.5 1475.4,381.7 1483.6,381.5 
	1483.6,463.9 1468.5,463.9 1468.5,567.7 1485.9,567.7 1485.9,640.1 "/>
<radialGradient id="SVGID_00000156559026128132662640000015595071038193401729_" cx="1410.3883" cy="-260.2709" r="315.2431" fx="1386.0767" fy="54.0333" gradientTransform="matrix(1 0 0 1.464 0 889.7247)" gradientUnits="userSpaceOnUse">
	<stop  offset="0" style="stop-color:#FFB120"/>
	<stop  offset="1" style="stop-color:#FFAD21;stop-opacity:0"/>
</radialGradient>
<polygon style="opacity:0.45;fill:url(#SVGID_00000156559026128132662640000015595071038193401729_);enable-background:new    ;" points="
	1341.3,644.3 1341.3,594.4 1344.8,594.4 1344.8,490.1 1334.9,490.1 1334.9,411 1342.5,411 1342.5,325.4 1337.8,325.4 1337.8,215.1 
	1334.9,215.1 1334.9,110.4 1344.5,110.4 1344.5,-171 1388.3,-171 1388.3,-250.8 1403.3,-250.8 1403.3,-193.9 1418.2,-193.9 
	1418.2,-174.6 1440.4,-174.6 1440.4,-98.8 1471.1,-98.8 1471.1,-72 1491.1,-72 1491.1,83.4 1495.8,83.4 1495.8,187.2 1491,187.2 
	1491,194.8 1485.9,194.8 1485.9,297.5 1475.4,297.5 1475.4,381.7 1483.6,381.5 1483.6,463.9 1468.5,463.9 1468.5,567.7 
	1485.9,567.7 1485.9,640.1 "/>
<linearGradient id="SVGID_00000096029388059107861590000005415877263748995485_" gradientUnits="userSpaceOnUse" x1="1334.9" y1="-713.25" x2="1495.8" y2="-713.25" gradientTransform="matrix(1 0 0 1 0 910)">
	<stop  offset="0" style="stop-color:#FFB120;stop-opacity:0"/>
	<stop  offset="0.5014" style="stop-color:#FFD415;stop-opacity:0.8"/>
	<stop  offset="0.716" style="stop-color:#FFC619;stop-opacity:0.4557"/>
	<stop  offset="1" style="stop-color:#FFAD21;stop-opacity:0"/>
	<stop  offset="1" style="stop-color:#FFB120"/>
</linearGradient>
<polygon style="opacity:0.45;fill:url(#SVGID_00000096029388059107861590000005415877263748995485_);enable-background:new    ;" points="
	1341.3,644.3 1341.3,594.4 1344.8,594.4 1344.8,490.1 1334.9,490.1 1334.9,411 1342.5,411 1342.5,325.4 1337.8,325.4 1337.8,215.1 
	1334.9,215.1 1334.9,110.4 1344.5,110.4 1344.5,-171 1388.3,-171 1388.3,-250.8 1403.3,-250.8 1403.3,-193.9 1418.2,-193.9 
	1418.2,-174.6 1440.4,-174.6 1440.4,-98.8 1471.1,-98.8 1471.1,-72 1491.1,-72 1491.1,83.4 1495.8,83.4 1495.8,187.2 1491,187.2 
	1491,194.8 1485.9,194.8 1485.9,297.5 1475.4,297.5 1475.4,381.7 1483.6,381.5 1483.6,463.9 1468.5,463.9 1468.5,567.7 
	1485.9,567.7 1485.9,640.1 "/>
<rect x="1453.4" y="-217.6" class="st61" width="42.4" height="57.6"/>
<rect x="1314.8" y="520.5" class="st61" width="17.9" height="84.2"/>
<linearGradient id="SVGID_00000170242736843862434200000016628258171916509093_" gradientUnits="userSpaceOnUse" x1="1436.1642" y1="-602.2522" x2="1432.8567" y2="-370.5038" gradientTransform="matrix(1 0 0 1 0 910)">
	<stop  offset="3.088832e-03" style="stop-color:#FF0E05"/>
	<stop  offset="1" style="stop-color:#FE8203"/>
</linearGradient>
<polygon style="fill:url(#SVGID_00000170242736843862434200000016628258171916509093_);" points="1441.7,544.9 1427.3,544.9 
	1427.3,303.8 1435.1,303.8 1435.1,424.8 1441.7,425 "/>
<linearGradient id="SVGID_00000157266645287699468070000005980174650051564471_" gradientUnits="userSpaceOnUse" x1="1435.1569" y1="-362.3749" x2="1433.8516" y2="-270.9155" gradientTransform="matrix(1 0 0 1 0 910)">
	<stop  offset="3.088832e-03" style="stop-color:#FF0E05"/>
	<stop  offset="1" style="stop-color:#FE8203"/>
</linearGradient>
<polygon style="fill:url(#SVGID_00000157266645287699468070000005980174650051564471_);" points="1441.7,641.2 1427.3,641.2 
	1427.3,546.1 1435.1,546.1 1435.1,584.2 1441.7,584.2 "/>
<linearGradient id="SVGID_00000077319560729064114420000013732764902133019015_" gradientUnits="userSpaceOnUse" x1="1410.0227" y1="-1003.1187" x2="1416.088" y2="-249.2164" gradientTransform="matrix(1 0 0 1 0 910)">
	<stop  offset="3.088832e-03" style="stop-color:#FF7A9A"/>
	<stop  offset="1" style="stop-color:#FFA89A"/>
</linearGradient>
<polygon style="fill:url(#SVGID_00000077319560729064114420000013732764902133019015_);" points="1421.9,642 1403.4,642 
	1403.6,-194 1417,-194.1 1416.9,-175.1 1421.9,-175.1 "/>
<linearGradient id="SVGID_00000179634854196395216560000008457280607936569984_" gradientUnits="userSpaceOnUse" x1="1382.2133" y1="-526.1652" x2="1382.486" y2="-268.6518" gradientTransform="matrix(1 0 0 1 0 910)">
	<stop  offset="3.088832e-03" style="stop-color:#FF1508"/>
	<stop  offset="1" style="stop-color:#FF8609"/>
</linearGradient>
<rect x="1371.9" y="382.8" style="fill:url(#SVGID_00000179634854196395216560000008457280607936569984_);" width="20.9" height="260.3"/>
<polyline class="st68" points="1485.3,568.5 1474.8,568.5 1474.8,641 "/>
<line class="st69" x1="1470.8" y1="-72.1" x2="1470.8" y2="82.4"/>
<line class="st70" x1="1412.3" y1="-193.6" x2="1412.3" y2="646.2"/>
<polyline class="st71" points="1369.9,-170.8 1369.9,189.6 1382.9,189.6 1382.9,444 1376.4,444 1376.4,646.2 "/>
<polyline class="st72" points="1393.8,-251.4 1393.8,71.2 1379.4,71.2 1379.4,154.7 1448.1,154.7 1448.1,638.7 "/>
<rect x="1299.3" y="97.2" class="st73" width="12" height="95.2"/>
<rect x="1299.3" y="97.2" class="st61" width="12" height="84.1"/>
<rect x="1358.3" y="-221.3" class="st74" width="12" height="17.4"/>
<circle class="st61" cx="1406.5" cy="-325.6" r="17"/>
<rect x="1506.3" y="137.4" class="st75" width="18" height="18"/>
<rect x="1515.1" y="308.2" class="st73" width="15" height="57.2"/>
<rect x="1515.1" y="308.2" class="st76" width="15" height="42.2"/>
<rect x="1501.3" y="393.3" transform="matrix(0.5 -0.866 0.866 0.5 406.7535 1509.0804)" class="st75" width="18" height="18"/>
<linearGradient id="SVGID_00000071525622968224651350000009315025192494904486_" gradientUnits="userSpaceOnUse" x1="1568.9965" y1="-418.3835" x2="1541.5519" y2="-383.9896" gradientTransform="matrix(1 0 0 1 0 910)">
	<stop  offset="0" style="stop-color:#D7B4D7"/>
	<stop  offset="1" style="stop-color:#EB748D"/>
</linearGradient>
<circle style="fill:url(#SVGID_00000071525622968224651350000009315025192494904486_);" cx="1557.2" cy="506.4" r="22"/>
<rect x="1190.8" y="535.7" transform="matrix(0.3066 -0.9518 0.9518 0.3066 314.1584 1515.2246)" class="st61" width="12.6" height="12.6"/>
<linearGradient id="SVGID_00000121986835244926360520000012595249829703223475_" gradientUnits="userSpaceOnUse" x1="1252.297" y1="-326.8759" x2="1262.5002" y2="-290.6768" gradientTransform="matrix(1 0 0 1 0 910)">
	<stop  offset="0" style="stop-color:#FFB3C0"/>
	<stop  offset="1" style="stop-color:#FE7089"/>
</linearGradient>
<circle style="fill:url(#SVGID_00000121986835244926360520000012595249829703223475_);" cx="1256.8" cy="599.1" r="18.8"/>
<rect x="1358.6" y="360.1" class="st79" width="13.9" height="18.8"/>
<rect x="1439.1" y="-100" class="st79" width="14.3" height="10"/>
<polygon class="st80" points="1629.8,336.7 1634.5,333.3 1634.8,339.1 1638.1,343.8 1632.4,344 1627.7,347.4 1627.4,341.6 
	1624,336.9 "/>
<polygon class="st61" points="1156.7,522.6 1167,514 1168.7,527.3 1177.3,537.6 1164,539.3 1153.7,547.9 1152,534.6 1143.4,524.3 
	"/>
<polygon class="st61" points="1145.9,633.3 1150.9,629.5 1151.4,635.7 1155.3,640.7 1149,641.2 1144.1,645 1143.5,638.8 
	1139.7,633.9 "/>
<polygon class="st61" points="1302.6,46 1313.4,38.7 1313.7,51.8 1321,62.6 1307.9,62.9 1297.1,70.2 1296.8,57.2 1289.5,46.3 "/>
<polygon class="st61" points="1381.7,-543.1 1406.1,-588.4 1431.1,-543.4 1476.5,-518.9 1431.4,-493.9 1407,-448.6 1382,-493.6 
	1336.6,-518.1 "/>
<rect x="1462.3" y="766.3" transform="matrix(0.9729 -0.2314 0.2314 0.9729 -138.0785 359.7277)" class="st81" width="4.3" height="4.3"/>
<rect x="1317.5" y="830.3" transform="matrix(0.3483 -0.9374 0.9374 0.3483 78.5302 1785.8492)" class="st82" width="12.3" height="12.3"/>
<rect x="1364.5" y="852.4" transform="matrix(0.7703 -0.6377 0.6377 0.7703 -231.1159 1068.0698)" class="st82" width="4.9" height="4.9"/>
<rect x="1475.2" y="846.5" transform="matrix(0.7703 -0.6377 0.6377 0.7703 -201.4611 1136.2667)" class="st82" width="2.6" height="2.6"/>
<rect x="1293.2" y="783.4" transform="matrix(0.3068 -0.9518 0.9518 0.3068 149.9987 1779.1285)" class="st83" width="6.3" height="6.3"/>
<polygon class="st84" points="1447.2,783.4 1448.5,780.7 1450.1,783.2 1452.7,784.5 1450.2,786.1 1449,788.8 1447.4,786.2 
	1444.7,785 "/>
<polygon class="st84" points="1388.9,860 1391.8,859.5 1390.6,862.3 1391.2,865.2 1388.4,864 1385.5,864.6 1386.6,861.8 
	1386.1,858.9 "/>
<polygon class="st85" points="1266.6,785.2 1271,781.7 1271.6,787.3 1275.2,791.7 1269.6,792.3 1265.1,795.8 1264.5,790.2 
	1261,785.8 "/>
<polygon class="st86" points="1438.7,883.5 1441.3,884.9 1438.7,886.3 1437.3,888.9 1435.9,886.3 1433.3,884.9 1435.9,883.5 
	1437.3,880.9 "/>
<polygon class="st87" points="1482.4,840.6 1485,840.2 1483.9,842.6 1484.3,845.1 1482,844.1 1479.4,844.5 1480.5,842.1 
	1480.1,839.6 "/>
<circle class="st88" cx="1380.8" cy="852.5" r="1.9"/>
<circle class="st88" cx="1425.4" cy="875.3" r="1.6"/>
<polygon class="st89" points="1279.1,642.1 1556.4,635.3 1556.4,758.9 1279.1,758.9 "/>
<radialGradient id="SVGID_00000107567591318486762710000002683930325221435019_" cx="1417.75" cy="-964.0344" r="135.5204" gradientTransform="matrix(1 0 0 0.372 0 1055.7208)" gradientUnits="userSpaceOnUse">
	<stop  offset="0" style="stop-color:#DC0056"/>
	<stop  offset="1" style="stop-color:#D70055;stop-opacity:0"/>
</radialGradient>
<polygon style="fill:url(#SVGID_00000107567591318486762710000002683930325221435019_);" points="1279.1,642.1 1556.4,635.3 
	1556.4,758.9 1279.1,758.9 "/>
<polygon class="st91" points="1249.5,652.2 1592,649.1 1592,705.6 1249.5,705.6 "/>
<polygon class="st92" points="1249.5,652 1592,649.1 1592,701.6 1249.5,701.6 "/>
<linearGradient id="SVGID_00000162333707838915443400000000880244186412203961_" gradientUnits="userSpaceOnUse" x1="1420.4286" y1="-254.5355" x2="1421.077" y2="-214.4223" gradientTransform="matrix(1 0 0 1 0 910)">
	<stop  offset="0" style="stop-color:#F71D11;stop-opacity:0"/>
	<stop  offset="2.767234e-02" style="stop-color:#F82C0E;stop-opacity:2.973047e-02"/>
	<stop  offset="8.616767e-02" style="stop-color:#FB4609;stop-opacity:9.257638e-02"/>
	<stop  offset="0.151" style="stop-color:#FD5A05;stop-opacity:0.1622"/>
	<stop  offset="0.2245" style="stop-color:#FE6802;stop-opacity:0.2411"/>
	<stop  offset="0.314" style="stop-color:#FF7100;stop-opacity:0.3374"/>
	<stop  offset="0.4654" style="stop-color:#FF7300;stop-opacity:0.5"/>
	<stop  offset="0.7099" style="stop-color:#FF7100;stop-opacity:0.2713"/>
	<stop  offset="0.7979" style="stop-color:#FE6A01;stop-opacity:0.189"/>
	<stop  offset="0.8607" style="stop-color:#FE5F02;stop-opacity:0.1303"/>
	<stop  offset="0.9115" style="stop-color:#FD4E04;stop-opacity:8.277613e-02"/>
	<stop  offset="0.955" style="stop-color:#FB3807;stop-opacity:4.213133e-02"/>
	<stop  offset="0.9928" style="stop-color:#F91D0A;stop-opacity:6.763339e-03"/>
	<stop  offset="1" style="stop-color:#F9170B;stop-opacity:0"/>
</linearGradient>
<polygon style="fill:url(#SVGID_00000162333707838915443400000000880244186412203961_);" points="1249.5,652 1592,649.1 1592,701.6 
	1249.5,701.6 "/>
</svg>
