<svg fill="none" height="647" viewBox="0 0 600 647" width="600" xmlns="http://www.w3.org/2000/svg" xmlns:xlink="http://www.w3.org/1999/xlink"><filter id="a" color-interpolation-filters="sRGB" filterUnits="userSpaceOnUse" height="174.412" width="187.222" x="205.41" y="285.051"><feFlood flood-opacity="0" result="BackgroundImageFix"/><feBlend in="SourceGraphic" in2="BackgroundImageFix" mode="normal" result="shape"/><feGaussianBlur result="effect1_foregroundBlur_4897_69568" stdDeviation="4.68324"/></filter><filter id="b" color-interpolation-filters="sRGB" filterUnits="userSpaceOnUse" height="62.0829" width="67.3619" x="265.447" y="391.891"><feFlood flood-opacity="0" result="BackgroundImageFix"/><feBlend in="SourceGraphic" in2="BackgroundImageFix" mode="normal" result="shape"/><feGaussianBlur result="effect1_foregroundBlur_4897_69568" stdDeviation=".124886"/></filter><filter id="c" color-interpolation-filters="sRGB" filterUnits="userSpaceOnUse" height="256.301" width="10.7858" x="293.932" y="206.854"><feFlood flood-opacity="0" result="BackgroundImageFix"/><feBlend in="SourceGraphic" in2="BackgroundImageFix" mode="normal" result="shape"/><feGaussianBlur result="effect1_foregroundBlur_4897_69568" stdDeviation="2.49773"/></filter><filter id="d" color-interpolation-filters="sRGB" filterUnits="userSpaceOnUse" height="251.306" width="5.39292" x="296.629" y="209.352"><feFlood flood-opacity="0" result="BackgroundImageFix"/><feBlend in="SourceGraphic" in2="BackgroundImageFix" mode="normal" result="shape"/><feGaussianBlur result="effect1_foregroundBlur_4897_69568" stdDeviation="1.24886"/></filter><filter id="e" color-interpolation-filters="sRGB" filterUnits="userSpaceOnUse" height="248.808" width="2.89519" x="297.878" y="210.6"><feFlood flood-opacity="0" result="BackgroundImageFix"/><feBlend in="SourceGraphic" in2="BackgroundImageFix" mode="normal" result="shape"/><feGaussianBlur result="effect1_foregroundBlur_4897_69568" stdDeviation=".624432"/></filter><filter id="f" color-interpolation-filters="sRGB" filterUnits="userSpaceOnUse" height="75.0711" width="80.3499" x="258.953" y="385.397"><feFlood flood-opacity="0" result="BackgroundImageFix"/><feBlend in="SourceGraphic" in2="BackgroundImageFix" mode="normal" result="shape"/><feGaussianBlur result="effect1_foregroundBlur_4897_69568" stdDeviation="1.81085"/></filter><linearGradient id="g" gradientUnits="userSpaceOnUse" x1="364.474" x2="301.171" y1="386.25" y2="456.65"><stop offset="0" stop-color="#dfebff"/><stop offset="1" stop-color="#ff3535" stop-opacity="0"/></linearGradient><linearGradient id="h" gradientUnits="userSpaceOnUse" x1="304.305" x2="398.499" y1="461.026" y2="358.41"><stop offset="0" stop-color="#ff0420"/><stop offset="1" stop-color="#8186ff" stop-opacity="0"/></linearGradient><linearGradient id="i" gradientUnits="userSpaceOnUse" x1="303.184" x2="411.121" y1="461.026" y2="343.276"><stop offset="0" stop-color="#ff0420"/><stop offset="1" stop-color="#477bff" stop-opacity="0"/></linearGradient><linearGradient id="j" gradientUnits="userSpaceOnUse" x1="245.991" x2="297.338" y1="395.423" y2="456.695"><stop offset="0" stop-color="#dbe9ff" stop-opacity="0"/><stop offset="1" stop-color="#ff3535"/></linearGradient><linearGradient id="k" gradientUnits="userSpaceOnUse" x1="265.336" x2="240.388" y1="449.532" y2="382.245"><stop offset="0" stop-color="#ff0420" stop-opacity="0"/><stop offset=".813314" stop-color="#ccd7ff"/></linearGradient><linearGradient id="l" gradientUnits="userSpaceOnUse" x1="286.058" x2="225.034" y1="453.664" y2="382.188"><stop offset="0" stop-color="#ff0420"/><stop offset="1" stop-color="#044aff" stop-opacity="0"/></linearGradient><linearGradient id="m" gradientUnits="userSpaceOnUse" x1="299.021" x2="251.645" y1="281.3" y2="438.583"><stop offset="0" stop-color="#ff5cbe"/><stop offset="1" stop-color="#c90016"/></linearGradient><linearGradient id="n"><stop offset=".0695318" stop-color="#ffb6b6" stop-opacity="0"/><stop offset=".792802" stop-color="#fff"/></linearGradient><linearGradient id="o" gradientUnits="userSpaceOnUse" x1="252.021" x2="393.954" xlink:href="#n" y1="427.717" y2="348.865"/><linearGradient id="p"><stop offset="0" stop-color="#fff"/><stop offset="1" stop-color="#fff" stop-opacity="0"/></linearGradient><linearGradient id="q" gradientUnits="userSpaceOnUse" x1="380.143" x2="211.401" xlink:href="#p" y1="376.23" y2="380.943"/><linearGradient id="r" gradientUnits="userSpaceOnUse" x1="292.3" x2="299.125" y1="453.969" y2="349.035"><stop offset="0" stop-color="#ff9458"/><stop offset="1" stop-color="#ff006b"/></linearGradient><linearGradient id="s" gradientUnits="userSpaceOnUse" x1="287.07" x2="310.985" y1="343.781" y2="419.569"><stop offset="0" stop-color="#fff5ee"/><stop offset="1" stop-color="#fff" stop-opacity="0"/></linearGradient><linearGradient id="t"><stop offset="0" stop-color="#b80018"/><stop offset="1" stop-color="#700013"/></linearGradient><linearGradient id="u" gradientUnits="userSpaceOnUse" x1="315.844" x2="315.844" xlink:href="#t" y1="392.141" y2="453.725"/><linearGradient id="v" gradientUnits="userSpaceOnUse" x1="278.476" x2="299.127" y1="447.793" y2="409.826"><stop offset="0" stop-color="#ff9b51"/><stop offset="1" stop-color="#f91c74"/></linearGradient><linearGradient id="w" gradientUnits="userSpaceOnUse" x1="319.051" x2="288.909" y1="422.933" y2="450.401"><stop offset="0" stop-color="#ff0059"/><stop offset="1" stop-color="#ff8d00"/></linearGradient><linearGradient id="x" gradientUnits="userSpaceOnUse" x1="303.907" x2="281.444" xlink:href="#p" y1="388.577" y2="455.824"/><linearGradient id="y" gradientUnits="userSpaceOnUse" x1="222.582" x2="296.506" y1="274.945" y2="458.16"><stop offset="0" stop-color="#e38484"/><stop offset="1" stop-color="#ff5959"/></linearGradient><linearGradient id="z" gradientUnits="userSpaceOnUse" x1="230.554" x2="291.927" y1="276.767" y2="458.16"><stop offset="0" stop-color="#a2b1ff" stop-opacity="0"/><stop offset="1" stop-color="#ff7272"/></linearGradient><linearGradient id="A" gradientUnits="userSpaceOnUse" x1="232.273" x2="288.285" y1="274.798" y2="448.748"><stop offset="0" stop-color="#c8dbff"/><stop offset="1" stop-color="#f00" stop-opacity="0"/></linearGradient><linearGradient id="B" gradientUnits="userSpaceOnUse" x1="227.602" x2="285.901" y1="273.6" y2="450.255"><stop offset="0" stop-color="#f2d5ff"/><stop offset="1" stop-color="#ff8989" stop-opacity="0"/></linearGradient><linearGradient id="C" gradientUnits="userSpaceOnUse" x1="374.159" x2="301.511" y1="279.478" y2="455.708"><stop offset="0" stop-color="#8069b1"/><stop offset=".520833" stop-color="#ff7ba3" stop-opacity=".546875"/><stop offset="1" stop-color="#ff3434" stop-opacity="0"/></linearGradient><linearGradient id="D" gradientUnits="userSpaceOnUse" x1="389.272" x2="299.129" y1="295.677" y2="456.308"><stop offset="0" stop-color="#eb6b7a"/><stop offset=".464506" stop-color="#ebf1ff" stop-opacity="0"/></linearGradient><linearGradient id="E"><stop offset="0" stop-color="#fff"/><stop offset=".96089" stop-color="#fff"/><stop offset="1" stop-color="#fff" stop-opacity="0"/></linearGradient><linearGradient id="F" gradientUnits="userSpaceOnUse" x1="299.325" x2="299.325" xlink:href="#E" y1="211.849" y2="458.16"/><linearGradient id="G" gradientUnits="userSpaceOnUse" x1="299.326" x2="299.326" xlink:href="#E" y1="211.849" y2="458.16"/><linearGradient id="H" gradientUnits="userSpaceOnUse" x1="412.147" x2="343.578" y1="290.649" y2="432.792"><stop offset="0"/><stop offset=".881532" stop-color="#d9d9d9" stop-opacity="0"/></linearGradient><linearGradient id="I" gradientUnits="userSpaceOnUse" x1="233.063" x2="320.231" y1="354.047" y2="447.279"><stop offset="0"/><stop offset=".569909" stop-color="#d9d9d9" stop-opacity="0"/></linearGradient><linearGradient id="J" gradientUnits="userSpaceOnUse" x1="279.758" x2="338.25" xlink:href="#n" y1="445.788" y2="413.292"/><linearGradient id="K" gradientUnits="userSpaceOnUse" x1="332.559" x2="263.019" xlink:href="#p" y1="424.57" y2="426.512"/><linearGradient id="L"><stop offset="0" stop-color="#ffe0cc" stop-opacity=".5"/><stop offset="1" stop-color="#ff99a1"/></linearGradient><linearGradient id="M" gradientUnits="userSpaceOnUse" x1="92.4974" x2="92.4974" xlink:href="#L" y1="363.368" y2="453.669"/><linearGradient id="N"><stop offset="0" stop-color="#ff0420"/><stop offset="1" stop-color="#ff0420" stop-opacity="0"/></linearGradient><linearGradient id="O" gradientUnits="userSpaceOnUse" x1="144.246" x2="144.246" xlink:href="#N" y1="453.626" y2="423.878"/><linearGradient id="P"><stop offset="0" stop-color="#ff0420"/><stop offset="1" stop-color="#b80018"/></linearGradient><linearGradient id="Q" gradientUnits="userSpaceOnUse" x1="144.07" x2="75.1977" xlink:href="#P" y1="364.879" y2="450.772"/><linearGradient id="R"><stop offset="0" stop-color="#fff" stop-opacity="0"/><stop offset="1" stop-color="#fff"/></linearGradient><linearGradient id="S" gradientUnits="userSpaceOnUse" x1="92.8451" x2="92.2216" xlink:href="#R" y1="363.367" y2="404.731"/><linearGradient id="T"><stop offset="0" stop-color="#ff99a1"/><stop offset="1" stop-color="#ff5c6c"/></linearGradient><linearGradient id="U" gradientUnits="userSpaceOnUse" x1="84.5352" x2="84.5352" xlink:href="#T" y1="395.707" y2="421.33"/><linearGradient id="V"><stop offset="0" stop-color="#ff5c6c"/><stop offset="1" stop-color="#ff0420"/></linearGradient><linearGradient id="W" gradientUnits="userSpaceOnUse" x1="80.5906" x2="80.5906" xlink:href="#V" y1="412.658" y2="430.842"/><linearGradient id="X" gradientUnits="userSpaceOnUse" x1="77.295" x2="77.295" xlink:href="#P" y1="426.786" y2="438.652"/><linearGradient id="Y" gradientUnits="userSpaceOnUse" x1="79.2762" x2="75.998" y1="370.274" y2="461.56"><stop offset="0" stop-color="#b9cdf3"/><stop offset="1" stop-color="#f00" stop-opacity="0"/></linearGradient><linearGradient id="Z" gradientUnits="userSpaceOnUse" x1="83.698" x2="65.572" y1="388.826" y2="495.385"><stop offset=".0366451"/><stop offset=".952151" stop-opacity="0"/></linearGradient><linearGradient id="aa" gradientUnits="userSpaceOnUse" x1="505.163" x2="499.825" xlink:href="#R" y1="328.195" y2="405.381"/><linearGradient id="ab" gradientUnits="userSpaceOnUse" x1="505.021" x2="505.021" xlink:href="#L" y1="328.195" y2="456.304"/><linearGradient id="ac" gradientUnits="userSpaceOnUse" x1="526.162" x2="526.162" xlink:href="#N" y1="456.244" y2="414.041"/><linearGradient id="ad" gradientUnits="userSpaceOnUse" x1="509.583" x2="509.583" xlink:href="#T" y1="368.652" y2="422.029"/><linearGradient id="ae" gradientUnits="userSpaceOnUse" x1="513.96" x2="513.96" xlink:href="#V" y1="394.42" y2="432.096"/><linearGradient id="af" gradientUnits="userSpaceOnUse" x1="517.541" x2="517.541" xlink:href="#P" y1="415.531" y2="440.36"/><linearGradient id="ag" gradientUnits="userSpaceOnUse" x1="505.163" x2="516.679" y1="328.195" y2="469.566"><stop offset="0" stop-color="#708bc0"/><stop offset="1" stop-color="#ff0420" stop-opacity="0"/></linearGradient><linearGradient id="ah" gradientUnits="userSpaceOnUse" x1="478.98" x2="518.268" y1="373.898" y2="461.937"><stop offset="0" stop-color="#b5c0fa" stop-opacity=".5"/><stop offset="1" stop-color="#ff6773" stop-opacity=".5"/></linearGradient><linearGradient id="ai"><stop offset="0"/><stop offset="1" stop-opacity="0"/></linearGradient><linearGradient id="aj" gradientUnits="userSpaceOnUse" x1="515.293" x2="536.059" xlink:href="#ai" y1="421.588" y2="420.847"/><linearGradient id="ak" gradientUnits="userSpaceOnUse" x1="545.987" x2="549.212" xlink:href="#ai" y1="382.324" y2="447.97"/><linearGradient id="al" gradientUnits="userSpaceOnUse" x1="201.775" x2="197.065" xlink:href="#L" y1="176.21" y2="247.101"/><linearGradient id="am" gradientUnits="userSpaceOnUse" x1="199.228" x2="202.934" y1="243.985" y2="192.205"><stop offset="0" stop-color="#ff0420"/><stop offset="1" stop-color="#fff2ea" stop-opacity="0"/></linearGradient><linearGradient id="an" gradientUnits="userSpaceOnUse" x1="217.388" x2="196.108" y1="203.528" y2="241.626"><stop offset="0" stop-color="#ffe0cc"/><stop offset="1" stop-color="#ff0420" stop-opacity="0"/></linearGradient><linearGradient id="ao" gradientUnits="userSpaceOnUse" x1="199.686" x2="217.709" y1="245.671" y2="206.103"><stop offset="0" stop-color="#c10000"/><stop offset="1" stop-color="#ffd4b8" stop-opacity="0"/></linearGradient><linearGradient id="ap" gradientUnits="userSpaceOnUse" x1="206.465" x2="210.136" y1="174.226" y2="206.473"><stop offset="0" stop-color="#c37373"/><stop offset="1" stop-color="#eece7b"/><stop offset="1" stop-color="#a08337"/></linearGradient><linearGradient id="aq" gradientUnits="userSpaceOnUse" x1="209.321" x2="209.321" xlink:href="#T" y1="192.151" y2="215.635"/><linearGradient id="ar" gradientUnits="userSpaceOnUse" x1="206.938" x2="206.938" xlink:href="#V" y1="204.281" y2="222.444"/><linearGradient id="as" gradientUnits="userSpaceOnUse" x1="205.067" x2="205.067" xlink:href="#P" y1="213.764" y2="227.767"/><linearGradient id="at" gradientUnits="userSpaceOnUse" x1="221.953" x2="197.323" y1="194.763" y2="245.67"><stop offset="0" stop-color="#ffe0cc" stop-opacity=".7"/><stop offset="1" stop-color="#ff0021" stop-opacity="0"/></linearGradient><linearGradient id="au" gradientUnits="userSpaceOnUse" x1="198.688" x2="215.443" y1="245.024" y2="196.54"><stop offset="0" stop-color="#ff0505"/><stop offset="1" stop-color="#ff0420" stop-opacity="0"/><stop offset="1" stop-color="#ffe0cc" stop-opacity="0"/></linearGradient><linearGradient id="av" gradientUnits="userSpaceOnUse" x1="229.749" x2="210.003" xlink:href="#ai" y1="189.9" y2="259.577"/><linearGradient id="aw" gradientUnits="userSpaceOnUse" x1="345.418" x2="335.703" xlink:href="#N" y1="112.295" y2="110.065"/><linearGradient id="ax" gradientUnits="userSpaceOnUse" x1="340.125" x2="345.111" y1="115.903" y2="112.001"><stop offset="0" stop-color="#b5b3ff"/><stop offset="1" stop-opacity="0"/></linearGradient><linearGradient id="ay" gradientUnits="userSpaceOnUse" x1="334.665" x2="345.058" y1="94.1525" y2="112.061"><stop offset="0" stop-color="#ffe0cc" stop-opacity="0"/><stop offset="1" stop-color="#ff3e4d"/></linearGradient><linearGradient id="az" gradientUnits="userSpaceOnUse" x1="345.336" x2="334.734" y1="110.721" y2="94.0457"><stop offset="0" stop-color="#ff0420"/><stop offset="1" stop-color="#7065e5" stop-opacity="0"/></linearGradient><linearGradient id="aA" gradientUnits="userSpaceOnUse" x1="352.703" x2="346.183" y1="94.8918" y2="111.965"><stop offset="0" stop-color="#ffcdd1"/><stop offset="1" stop-color="#ffe0cc" stop-opacity="0"/></linearGradient><linearGradient id="aB" gradientUnits="userSpaceOnUse" x1="346.332" x2="348.26" xlink:href="#N" y1="112.439" y2="93.8089"/><linearGradient id="aC" gradientUnits="userSpaceOnUse" x1="346.73" x2="353.4" y1="112.439" y2="93.2492"><stop offset="0" stop-color="#ff0420"/><stop offset="1" stop-color="#ae75c9" stop-opacity="0"/></linearGradient><linearGradient id="aD" gradientUnits="userSpaceOnUse" x1="346.922" x2="348.699" y1="111.895" y2="113.392"><stop offset="0" stop-color="#f00"/><stop offset="1" stop-color="#d9d9d9" stop-opacity="0"/></linearGradient><linearGradient id="aE" gradientUnits="userSpaceOnUse" x1="346.379" x2="348.325" y1="112.119" y2="114.14"><stop offset="0" stop-color="#f00" stop-opacity="0"/><stop offset="1" stop-color="#b8bbff"/></linearGradient><linearGradient id="aF" gradientUnits="userSpaceOnUse" x1="449.475" x2="442.562" y1="200.13" y2="146.496"><stop offset="0" stop-color="#445908"/><stop offset="1" stop-color="#0a7915"/></linearGradient><linearGradient id="aG" gradientUnits="userSpaceOnUse" x1="458.588" x2="427.136" y1="245.67" y2="195.873"><stop offset="0" stop-color="#f00"/><stop offset="1" stop-color="#6fff86" stop-opacity="0"/></linearGradient><linearGradient id="aH" gradientUnits="userSpaceOnUse" x1="429.048" x2="457.507" y1="194.315" y2="247.574"><stop offset="0" stop-color="#e0f6d2"/><stop offset="1" stop-color="#f00" stop-opacity="0"/></linearGradient><linearGradient id="aI" gradientUnits="userSpaceOnUse" x1="456.558" x2="425.389" y1="245.27" y2="191.334"><stop offset="0" stop-color="#f00"/><stop offset="1" stop-color="#3f0" stop-opacity="0"/></linearGradient><linearGradient id="aJ" gradientUnits="userSpaceOnUse" x1="458.394" x2="457.82" y1="191.701" y2="245.989"><stop offset="0" stop-color="#e5f8af"/><stop offset="1" stop-color="#ffe0cc" stop-opacity="0"/></linearGradient><linearGradient id="aK" gradientUnits="userSpaceOnUse" x1="459.298" x2="443.551" y1="247.2" y2="200.079"><stop offset="0" stop-color="#ff0420"/><stop offset="1" stop-color="#36ff04" stop-opacity="0"/></linearGradient><linearGradient id="aL" gradientUnits="userSpaceOnUse" x1="460.33" x2="461.173" xlink:href="#N" y1="246.906" y2="192.07"/><linearGradient id="aM" gradientUnits="userSpaceOnUse" x1="440.38" x2="440.38" xlink:href="#T" y1="179.942" y2="218.182"/><linearGradient id="aN" gradientUnits="userSpaceOnUse" x1="444.611" x2="444.611" xlink:href="#V" y1="195.42" y2="224.699"/><linearGradient id="aO" gradientUnits="userSpaceOnUse" x1="448.378" x2="448.378" xlink:href="#P" y1="209.279" y2="230.5"/><linearGradient id="aP" gradientUnits="userSpaceOnUse" x1="458.333" x2="458.333" xlink:href="#V" y1="180.019" y2="213.259"/><linearGradient id="aQ" gradientUnits="userSpaceOnUse" x1="458.356" x2="458.356" xlink:href="#P" y1="195.479" y2="220.93"/><linearGradient id="aR" gradientUnits="userSpaceOnUse" x1="458.349" x2="458.349" xlink:href="#t" y1="209.375" y2="227.729"/><linearGradient id="aS" gradientUnits="userSpaceOnUse" x1="469.003" x2="460.06" y1="166.86" y2="220.71"><stop offset="0" stop-color="#9bd7f1"/><stop offset="1" stop-color="#ffe0cc" stop-opacity="0"/></linearGradient><linearGradient id="aT" gradientUnits="userSpaceOnUse" x1="458.309" x2="463.352" xlink:href="#N" y1="241.554" y2="201.548"/><linearGradient id="aU" gradientUnits="userSpaceOnUse" x1="419.744" x2="445.648" y1="160.829" y2="211.802"><stop offset=".59375" stop-color="#d3eef2"/><stop offset="1" stop-color="#ff99a1" stop-opacity="0"/></linearGradient><linearGradient id="aV" gradientUnits="userSpaceOnUse" x1="458.435" x2="422.286" y1="244.787" y2="162.887"><stop offset="0" stop-color="#f00"/><stop offset="1" stop-color="#8fd47e" stop-opacity="0"/></linearGradient><linearGradient id="aW" gradientUnits="userSpaceOnUse" x1="496.103" x2="491.583" xlink:href="#ai" y1="164.007" y2="258.492"/><linearGradient id="aX" gradientUnits="userSpaceOnUse" x1="449.749" x2="489.37" xlink:href="#ai" y1="167.786" y2="258.682"/><linearGradient id="aY" gradientUnits="userSpaceOnUse" x1="241.67" x2="240.418" y1="507.323" y2="546.642"><stop offset="0" stop-color="#ff8a00"/><stop offset="1" stop-color="#ffe142"/></linearGradient><linearGradient id="aZ" gradientUnits="userSpaceOnUse" x1="247.594" x2="247.594" xlink:href="#V" y1="533.952" y2="557.874"/><linearGradient id="a0" gradientUnits="userSpaceOnUse" x1="244.173" x2="244.173" xlink:href="#t" y1="556.577" y2="568.354"/><linearGradient id="a1" gradientUnits="userSpaceOnUse" x1="255.446" x2="245.002" y1="518.791" y2="581.306"><stop offset="0" stop-color="#afd5ca"/><stop offset="1" stop-color="#ffe0cc" stop-opacity=".5"/></linearGradient><linearGradient id="a2" gradientUnits="userSpaceOnUse" x1="258.606" x2="245.215" y1="576.294" y2="549.043"><stop offset="0" stop-color="#ff0420"/><stop offset=".929412" stop-color="#ff0420" stop-opacity="0"/></linearGradient><linearGradient id="a3" gradientUnits="userSpaceOnUse" x1="264.777" x2="264.777" xlink:href="#N" y1="578.465" y2="555.018"/><linearGradient id="a4" gradientUnits="userSpaceOnUse" x1="227.312" x2="235.132" y1="513.314" y2="578.499"><stop offset="0" stop-color="#dff0ea" stop-opacity=".75"/><stop offset="1" stop-color="#ff99a1"/></linearGradient><linearGradient id="a5" gradientUnits="userSpaceOnUse" x1="241.548" x2="241.548" xlink:href="#N" y1="578.465" y2="555.018"/><linearGradient id="a6" gradientUnits="userSpaceOnUse" x1="271.106" x2="260.605" xlink:href="#ai" y1="549.536" y2="583.067"/><linearGradient id="a7" gradientUnits="userSpaceOnUse" x1="243.813" x2="243.813" xlink:href="#ai" y1="539.187" y2="615.353"/><clipPath id="a8"><path d="m0 0h600v647h-600z"/></clipPath><clipPath id="a9"><path d="m0 0h600v647h-600z" transform="matrix(-1 0 0 1 600 0)"/></clipPath><clipPath id="ba"><path d="m5.15137 27.4287h572v572h-572z"/></clipPath><mask id="bb" height="265" maskUnits="userSpaceOnUse" width="144" x="318" y="222"><path d="m461.456 356.844-142.528 129.256v-263.705z" fill="url(#H)"/></mask><mask id="bc" height="265" maskUnits="userSpaceOnUse" width="145" x="174" y="222"><path d="m318.295 222.588-143.579 133.247 143.579 130.989z" fill="url(#I)"/></mask><mask id="bd" fill="#fff"><path d="m315.256 419.143c-1.009-1.077-2.221-1.945-3.565-2.554-1.345-.608-2.796-.946-4.271-.994s-2.946.195-4.327.715-2.646 1.308-3.723 2.317-1.945 2.221-2.553 3.565c-.609 1.345-.947 2.796-.995 4.271s.195 2.945.715 4.327c.521 1.381 1.308 2.646 2.317 3.723l8.201-7.685z" fill="#fff"/></mask><mask id="be" fill="#fff"><path d="m345.791 395.332c2.97-3.187 4.551-7.424 4.397-11.777-.154-4.354-2.032-8.468-5.219-11.437-3.188-2.97-7.424-4.551-11.778-4.397-4.353.154-8.467 2.032-11.437 5.219l12.019 11.196z" fill="#fff"/></mask><mask id="bf" height="98" maskUnits="userSpaceOnUse" width="110" x="40" y="385"><path d="m149.821 385.268-109.7106 9.489 32.9131 87.472z" fill="url(#Z)"/></mask><mask id="bg" height="137" maskUnits="userSpaceOnUse" width="45" x="516" y="348"><path d="m560.347 484.813-43.385-136.647.185 90.665z" fill="url(#aj)"/></mask><mask id="bh" height="138" maskUnits="userSpaceOnUse" width="47" x="516" y="347"><path d="m562.183 405.411-1.732 79.328-43.927-136.875z" fill="url(#ak)"/></mask><mask id="bi" height="87" maskUnits="userSpaceOnUse" width="40" x="207" y="171"><path d="m246.998 207.376-36.768 50.613-3.177-86.927z" fill="url(#av)"/></mask><mask id="bj" height="111" maskUnits="userSpaceOnUse" width="39" x="472" y="148"><path d="m510.393 183.546-20.706 74.946-16.914-110.233z" fill="url(#aW)"/></mask><mask id="bk" height="112" maskUnits="userSpaceOnUse" width="56" x="434" y="147"><path d="m472.473 147.976-37.873 36.125 54.77 74.581z" fill="url(#aX)"/></mask><mask id="bl" height="77" maskUnits="userSpaceOnUse" width="27" x="255" y="539"><path d="m281.379 562.654-25.604 53.261 1.107-76.02z" fill="url(#a6)"/></mask><mask id="bm" height="77" maskUnits="userSpaceOnUse" width="26" x="231" y="539"><path d="m256.341 539.187-25.057 23.729 24.227 52.437z" fill="url(#a7)"/></mask><g clip-path="url(#a8)"><g clip-path="url(#a9)"><g fill="#fff"><path d="m-29.8486 305.537 202.2366-304.10829 78.763 18.00119-280.9996 738.9991z" opacity=".2"/><path d="m120.151 724.429 159.4-698.7002 107.104-14.3001 283.496 713.0003z" opacity=".2"/><path d="m289.151-285.571 46.174 50.792 65.326-20.849 14.648 67.126 66.976 14.681-20.802 65.473 50.678 46.2767-50.678 46.2768 20.802 65.4732-66.976 14.6807-14.648 67.1256-65.326-20.849-46.174 50.793-46.173-50.793-65.327 20.849-14.647-67.1256-66.9763-14.6807 20.8023-65.4732-50.6786-46.2768 50.6786-46.2767-20.8023-65.473 66.9763-14.681 14.647-67.126 65.327 20.849z" opacity=".5"/><path d="m531.356 545.667 4.115 10.44c3.632 9.222 10.922 16.512 20.117 20.145l10.465 4.141-10.465 4.14c-9.195 3.633-16.485 10.924-20.117 20.145l-4.115 10.441-4.115-10.441c-3.632-9.221-10.922-16.512-20.117-20.145l-10.465-4.14 10.465-4.141c9.195-3.633 16.485-10.923 20.117-20.145z" opacity=".5"/><path d="m-147.636 453.56 159.8203-144.472 24.9982 28.396 98.7255-86.715-28.219-30.096 64.315-56.057 124.117 122.512-334.1339 283.91z" opacity=".1"/><path d="m81.0566 349.939 45.5964-38.081 55.618 57.622-45.171 37.276z" opacity=".2"/><path d="m-86.793 647.062 195.276-166.071 121.719 111.828-192.951 163.165z" opacity=".1"/><path d="m144.381 316.914 250.707-218.3097 8.326-.4833-254.345 221.611z" opacity=".2"/><path d="m75.1592 212.727 39.5388-35.6 42.907 43.523-40.981 34.736z" opacity=".2"/><path d="m205.115 90.649 19.179-17.9289 112.655 111.5589-19.346 16.856z" opacity=".2"/><path d="m237.884 201.736 113.894-107.6472 48.039 42.4122-115.822 106.367z" opacity=".2"/><path d="m322.155 85.6717 36.717-34.984 19.468 17.9958-37.479 34.4195z" opacity=".1"/><path d="m379.517 21.9569 34.6-32.198 20.17 17.59617-34.423 31.61353z" opacity=".1"/><path d="m224.49 155.47 60.309-55.9342 20.464 20.0542-60.464 55.537z" opacity=".2"/><path d="m312.457 185.872 188.341 177.073-55.114 54.274 23.16 23.542-27.531 26.844-215.679-201.586z" opacity=".3"/><path d="m273.011 243.514 326.393 309.384-22.125 20.51-17.503-17.282-46.803 40.253 18.684 17.66-30.754 27.289-121.577-119.702 9.613-8.779-55.269-53.394-10.252 8.502-146.542-141.641z" opacity=".1"/><path d="m340.054 443.293 10.645 9.51-16.616 16.165-10.539-10.039z" opacity=".2"/><path d="m386.043 501.145 65.049 59.591-6.471 5.783 7.973 7.096-11.343 10.251-8.048-6.958-7.992 6.958-64.533-60.852z" opacity=".2"/><path d="m214.188 40.136 85.904 77.166 21.928-21.5433-86.174-77.3262z" opacity=".1"/><path d="m100.468 64.3544 115.282 105.6756 15.194-15.288-114.918-103.9325z" opacity=".1"/><path d="m231.266 248.682 379.303 348.224-15.618-.466-370.625-341.503z" opacity=".2"/><path d="m283.997 83.9117 42.009 38.5283-6.221 5.285 41.526 39.182 6.704-5.939 84.018 77.057-35.108 25.16-162.527-152.367z" opacity=".1"/></g><circle cx="205.861" cy="402.498" fill="#f5f5ff" r="3.44668"/><circle cx="153.62" cy="519.539" fill="#f5f5ff" r="5.75458"/><circle cx="392.396" cy="410.041" fill="#f5f5ff" r="5.75458"/><circle cx="204.158" cy="426.235" fill="#f5f5ff" r="1.74392"/><path d="m199.746 381.982h6.15593v7.04719h-6.15593z" fill="#fff" opacity=".6"/><path d="m439.549 502.984h6.15593v7.04719h-6.15593z" fill="#fff" opacity=".6"/><path d="m109.074 567.936h22.4875v25.7433h-22.4875z" fill="#fff" opacity=".2"/><circle cx="436.543" cy="638.027" fill="#e5e5fb" r="8.79906"/><g clip-path="url(#ba)"><path d="m348.343 413.474 50.377 48.24 83.846-83.111m-128.712-283.9025 24.272-20.594 43.394 89.7315" opacity=".5" stroke="#fff" stroke-width="3"/><path d="m104.314 411.618 61.075 49.308 67.674-60.407m-14.799-219.021 25.158-25.897-17.018 125.788m191.275-90.165-21.525 18.589 33.755 90.503-16.291 17.747" opacity=".5" stroke="#fff" stroke-width="3"/><path d="m249.929 514.418 15.652-13.914-31.305-31.739 36.087-36.521" opacity=".3" stroke="#fff" stroke-width="3"/><path d="m165.67 336.38 133.605-124.396 133.186 124.134-134.643 110.814z" fill="#d5e6ff"/><path d="m299.129 458.159v-15.621l133.71-106.334z" fill="url(#g)"/><path d="m299.129 458.159v-15.621l133.71-106.334z" fill="url(#h)"/><path d="m299.129 458.159v-15.621l133.71-106.334z" fill="url(#i)" fill-opacity=".64"/><path d="m299.381 458.08v-15.497l-133.711-106.334z" fill="url(#j)"/><path d="m299.381 458.08v-15.497l-133.711-106.334z" fill="url(#k)"/><path d="m299.381 458.08v-15.497l-133.711-106.334z" fill="url(#l)" fill-opacity=".64"/><path d="m298.967 445.91-79.855-73.002 79.855-74.302 79.963 74.37z" fill="url(#m)"/><g filter="url(#a)" opacity=".4"><path d="m299.025 446.975-81.127-74.053 81.127-75.382 81.118 75.444z" stroke="url(#o)" stroke-linejoin="round" stroke-width="6.24432"/></g><path d="m299.024 446.975-81.126-74.053 81.126-75.382 81.119 75.444z" stroke="url(#q)" stroke-linejoin="round" stroke-width="1.24886"/><path d="m299.127 449.906-54.762-49.934 54.762-50.937 54.758 50.927z" fill="url(#r)"/><path d="m299.726 449.908-54.763-49.988 54.763-50.885 54.757 50.927z" stroke="url(#s)" stroke-linejoin="round" stroke-width=".936648"/><path d="m299.129 453.725-33.433-30.518 33.433-31.066 33.43 31.091z" fill="url(#u)"/><path d="m299.127 453.725v-61.584l-33.43 31.091z" fill="url(#v)"/><path d="m299.128 453.725v-61.584l33.43 31.091z" fill="url(#w)"/><g filter="url(#b)" opacity=".5"><path d="m299.129 452.879-32.511-29.676 32.511-30.209 32.508 30.234z" stroke="url(#x)" stroke-linejoin="round" stroke-width="1.24886"/></g><path d="m299.127 458.16v-246.311l-133.709 124.356z" fill="url(#y)" opacity=".5"/><path d="m299.127 458.16v-246.311l-133.709 124.356z" fill="url(#z)" fill-opacity=".3"/><path d="m299.127 458.16v-246.311l-133.709 124.356z" fill="url(#A)"/><path d="m299.127 458.16v-246.311l-133.709 124.356z" fill="url(#B)" fill-opacity=".65"/><path d="m299.129 458.16v-246.311l133.71 124.356z" fill="url(#C)"/><path d="m299.129 458.16v-246.311l133.71 124.356z" fill="url(#D)" opacity=".5"/><g opacity=".5"><g filter="url(#c)"><path clip-rule="evenodd" d="m298.928 457.255v-244.483l.394-.923v246.311zm.795-244.466v244.45l-.401.921v-246.311z" fill="url(#F)" fill-rule="evenodd"/></g><g filter="url(#d)"><path clip-rule="evenodd" d="m299.127 457.711v-245.405l.195-.457v246.311zm.398-245.389v245.374l-.202.464v-246.311z" fill="url(#G)" fill-rule="evenodd"/></g><g filter="url(#e)"><path clip-rule="evenodd" d="m299.127 457.711v-245.405l.195-.457v246.311zm.398-245.389v245.374l-.202.464v-246.311z" fill="url(#G)" fill-rule="evenodd"/></g></g><g fill="#eaefff" mask="url(#bb)" opacity=".5"><path d="m354.946 158.16-3.318-3.319-7.94 14.39-6.258-6.258-35.862 64.99 7.28 7.279 7.94-14.389 2.297 2.297z"/><path d="m329.542 155.085-12.449-12.45-13.662 24.758-1.217-1.217-26.806 48.581 2.541 2.541 17.509-31.729 11.124 11.125z"/><path d="m384.233 213.14-16.026-16.026-41.972 76.065 12.04 12.041-24.587 44.559 8.191 8.191 59.382-107.615-4.207-4.206z"/><path d="m0 0h7.85443v95.851h-7.85443z" transform="matrix(.707107 .707107 -.48313 .875549 396.327 225.235)"/><path d="m0 0h7.85443v74.9784h-7.85443z" transform="matrix(.707107 .707107 -.48313 .875549 334.897 336.56)"/><path d="m320.627 255.189-7.282-7.282-35.862 64.99 6.966 6.966-11.145 20.198 3.103 3.103 30.861-55.927-2.787-2.787z"/><path d="m0 0h12.5169v168.364h-12.5169z" transform="matrix(.707107 .707107 -.48313 .875549 456.729 285.637)"/><path d="m527.783 356.69-5.327-5.326-48.827 88.486 4.418 4.418-15.555 28.191 6.696 6.696 27.415-49.683-5.788-5.788z"/><path d="m432.061 313.156-8.038-8.038-18.41 33.364-5.652-5.653-24.462 44.332 8.037 8.038 16.861-30.555 5.652 5.653z"/><path d="m0 0h15.4088v45.9085h-15.4088z" transform="matrix(.707107 .707107 -.48313 .875549 464.646 323.549)"/><path d="m0 0h5.39229v45.9085h-5.39229z" transform="matrix(.707107 .707107 -.48313 .875549 427.863 410.127)"/><path d="m491.77 362.264 2.351 2.351-51.773 93.825-1.762-1.762-21.154 38.337-8.477-8.477 37.186-67.39-10.896-10.896 28.139-50.995 10.896 10.896-12.739 23.086 7.888 7.889z"/><path d="m415.43 244.337 11.902 11.902-29.804 54.013 2.316 2.316-61.375 111.225-2.485-2.485 40.649-73.667-8.2-8.201-24.967 45.246-11.902-11.902 36.224-65.647 8.37 8.37z"/></g><g fill="#f4f4ff" mask="url(#bc)" opacity=".5"><path d="m137.201 303.643-20.472 20.471 44.486 103.743 15.381-15.381 26.061 60.774 10.463-10.463-62.938-146.775-5.373 5.373z"/><path d="m0 0h10.0333v124.54h-10.0333z" transform="matrix(.707107 -.707107 .394102 .919067 152.651 288.193)"/><path d="m0 0h10.0333v97.42h-10.0333z" transform="matrix(.707107 -.707107 .394102 .919067 217.759 440.028)"/><path d="m143.76 429.762-9.302 9.303 38.009 88.639 8.899-8.899 11.813 27.548 3.964-3.964-32.709-76.278-3.56 3.56z"/><path d="m0 0h15.9892v218.756h-15.9892z" transform="matrix(.707107 -.707107 .394102 .919067 229.81 211.034)"/><path d="m320.573 120.271-6.804 6.804 51.75 120.685 5.644-5.644 16.488 38.449 8.553-8.553-29.057-67.763-7.393 7.393z"/><path d="m241.671 264.709-10.268 10.267 19.513 45.504-7.221 7.221 25.927 60.463 10.268-10.267-17.87-41.674 7.22-7.22z"/><path d="m0 0h19.6834v59.6492h-19.6834z" transform="matrix(.707107 -.707107 .394102 .919067 264.851 213.661)"/><path d="m309.133 183.933 3.003-3.002 54.873 127.967-2.25 2.25 22.421 52.288-10.829 10.828-39.412-91.912-13.919 13.918-29.824-69.552 13.918-13.918 13.502 31.487 10.077-10.076z"/><path d="m177.052 263.792 15.205-15.205 31.588 73.667 2.959-2.958 65.049 151.699-3.175 3.175-43.083-100.474-10.476 10.476 26.462 61.71-15.204 15.204-38.393-89.535 10.691-10.692z"/></g><g filter="url(#f)" opacity=".6"><path d="m299.129 453.724-33.433-30.518 33.433-31.065 33.43 31.091z" stroke="url(#J)" stroke-linejoin="round" stroke-width="6.24432"/></g><path d="m299.129 453.724-33.433-30.518 33.433-31.065 33.43 31.091z" stroke="url(#K)" stroke-linejoin="round" stroke-width=".624432"/><path d="m315.256 419.143c-1.009-1.077-2.221-1.945-3.565-2.554-1.345-.608-2.796-.946-4.271-.994s-2.946.195-4.327.715-2.646 1.308-3.723 2.317-1.945 2.221-2.553 3.565c-.609 1.345-.947 2.796-.995 4.271s.195 2.945.715 4.327c.521 1.381 1.308 2.646 2.317 3.723l8.201-7.685z" mask="url(#bd)" opacity=".5" stroke="#fff" stroke-width="2.49773"/><path d="m345.791 395.332c2.97-3.187 4.551-7.424 4.397-11.777-.154-4.354-2.032-8.468-5.219-11.437-3.188-2.97-7.424-4.551-11.778-4.397-4.353.154-8.467 2.032-11.437 5.219l12.019 11.196z" mask="url(#be)" opacity=".2" stroke="#fff" stroke-width="2.49773"/><path d="m256.507 409.164 4.658 4.094 19.482-18.211-4.094-3.671" opacity=".5" stroke="#fff" stroke-width="1.24886"/><path d="m323.787 422.932-11.858 11.235 10.11 9.237 11.734-10.86" opacity=".6" stroke="#fff" stroke-width="1.24886"/><path d="m347.347 392.51-10.216 9.79 3.263 2.696-9.081 9.223-3.547-2.98-4.825 5.25" opacity=".5" stroke="#fff" stroke-width="1.24886"/><path d="m292.323 308.861 27.423 25.504 8.501-7.953 31.263 29.891m9.05 40.861-17.551-16.18 12.34-11.517 17.825 16.179m-146.441-22.761 7.13 6.582 26.053-23.584-8.776-7.679m-24.407 47.442 55.121-49.91-9.324-7.679" opacity=".3" stroke="#fff" stroke-width="1.24886"/><path d="m299.484 464.061 13.684-12.204 4.068 3.698 21.079-20.34" opacity=".5" stroke="#fff" stroke-width="1.24886"/><path d="m336.667 384.928-11.938 12.641-8.006-7.163-43.464 41.69" opacity=".5" stroke="#fff" stroke-width="1.24886"/><path d="m365.828 413.852-9.802 9.734 11.104 9.988" opacity=".5" stroke="#fff" stroke-width="1.24886"/><g opacity=".9"><path d="m40.9014 372.158 55.951 36.454-25.8895 45.057z" fill="url(#M)"/><path d="m40.9014 372.158 55.951 36.454-25.8895 45.057z" fill="url(#O)" fill-opacity=".64"/><path d="m70.9619 453.669 25.7664-44.886 47.3637-45.416z" fill="url(#Q)" opacity=".32"/><path d="m40.9014 372.158 55.8279 36.625 47.3637-45.416z" fill="url(#S)" opacity=".64"/><path d="m55.4248 400.666 31.498 20.664 26.7232-25.623z" fill="url(#U)"/><path d="m59.9316 416.177 22.3534 14.665 18.965-18.184z" fill="url(#W)"/><path d="m63.8145 429.083 14.5861 9.569 12.3749-11.866z" fill="url(#X)"/><path d="m144.093 363.367-103.1916 8.791 30.0615 81.511z" fill="url(#Y)"/><g fill="#5d6cbc" fill-opacity=".5" mask="url(#bf)"><path d="m66.3692 337.166-15.6788-2.049-14.9917 59.801 11.7803 1.539-8.7823 35.031 8.0138 1.047 21.2102-84.604-4.1154-.538z"/><path d="m0 0h5.4799v68.0198h-5.4799z" transform="matrix(.991572 .129554 -.243171 .969983 78.2021 338.712)"/><path d="m0 0h5.4799v53.2078h-5.4799z" transform="matrix(.991572 .129554 -.243171 .969983 56.2607 426.234)"/><path d="m0 0h8.73281v119.478h-8.73281z" transform="matrix(.991572 .129554 -.243171 .969983 137.298 346.433)"/><path d="m124.69 372.091-7.864-1.028-6.576 26.23-5.53-.722-8.7373 34.853 7.8633 1.027 6.023-24.022 5.53.723z"/><path d="m0 0h10.7505v32.5785h-10.7505z" transform="matrix(.991572 .129554 -.243171 .969983 151.668 364.004)"/><path d="m0 0h3.7621v32.5785h-3.7621z" transform="matrix(.991572 .129554 -.243171 .969983 142.929 427.408)"/><path d="m180.766 373.871 2.3.3-18.493 73.764-1.723-.225-7.556 30.14-8.294-1.084 13.282-52.981-10.659-1.392 10.05-40.092 10.66 1.393-4.55 18.15 7.717 1.008z"/><path d="m96.8909 341.153 11.6451 1.521-10.6457 42.464 2.2657.296-21.9217 87.443-2.4317-.317 14.5193-57.916-8.0229-1.048-8.9177 35.571-11.6448-1.521 12.9386-51.611 8.1888 1.07z"/></g></g><path d="m483.943 328.195 42.156 54.206-42.156 30.929z" fill="url(#aa)" opacity=".58"/><path d="m483.943 413.33 42.156-30.929-1.628 73.903z" fill="url(#ab)"/><path d="m483.943 413.33 42.156-30.929-1.628 73.903z" fill="url(#ac)" fill-opacity=".64"/><path d="m496.368 368.652 26.431 33.986-26.431 19.391z" fill="url(#ad)"/><path d="m504.632 394.42 18.655 23.988-18.655 13.688z" fill="url(#ae)"/><path d="m511.394 415.531 12.294 15.809-12.294 9.02z" fill="url(#af)"/><path d="m483.943 328.195 40.528 128.109 1.628-73.903z" fill="url(#ag)" fill-opacity=".5"/><path d="m483.943 328.195v85.135l40.528 42.974z" fill="url(#ah)"/><g fill="#4e476b" mask="url(#bg)"><path d="m516.659 470.61-.804 9.563 22.714 26.882.359-4.279-15.924-18.847.445-5.283z"/><path d="m494.141 474.545-.15 1.778 34.03 40.276.15-1.778 11.341 13.424.631-7.496-21.276-25.18-.63 7.496z"/><path d="m485.452 399.045-.942 11.209 34.938 41.352.708-8.422 20.467 24.224.481-5.73-49.429-58.503-.248 2.942z"/><path d="m0 0h3.89841v59.7275h-3.89841z" transform="matrix(.0837722 -.996485 .645385 .763857 486.164 390.585)"/><path d="m0 0h3.89841v46.7212h-3.89841z" transform="matrix(.0837722 -.996485 .645385 .763857 537.298 451.107)"/><path d="m515.195 454.27-.428 5.094 29.851 35.331.41-4.873 9.277 10.98.182-2.17-25.688-30.404-.164 1.949z"/><path d="m0 0h6.21253v104.912h-6.21253z" transform="matrix(.0837722 -.996485 .645385 .763857 489.715 348.336)"/><path d="m493.893 298.638-.313 3.726 40.644 48.105.26-3.091 12.948 15.326.394-4.684-22.821-27.01-.34 4.049z"/><path d="m504.803 370.894-.473 5.622 15.325 18.138-.332 3.954 20.362 24.1.473-5.622-14.035-16.611.333-3.953z"/><path d="m0 0h7.64791v28.6069h-7.64791z" transform="matrix(.0837722 -.996485 .645385 .763857 499.687 345.848)"/><path d="m0 0h2.67637v28.6069h-2.67637z" transform="matrix(.0837722 -.996485 .645385 .763857 536.616 384.11)"/><path d="m504.954 328.053.138-1.644 43.096 51.007-.103 1.232 17.609 20.842-.499 5.929-30.953-36.636-.641 7.621-23.423-27.723.64-7.621 10.604 12.551.464-5.518z"/><path d="m487.286 377.224.7-8.325 24.809 29.363.136-1.62 51.088 60.467-.146 1.738-33.837-40.048-.482 5.736 20.783 24.597-.7 8.325-30.153-35.688.492-5.854z"/></g><g fill="#9e90f3" mask="url(#bh)" opacity=".9"><path d="m513.614 372.585-5.801-3.322 5.797 21.335 2.596 1.487-4.064-14.958 3.205 1.835z"/><path d="m524.08 351.726-6.8-3.894 8.917 32.819 5.109 2.926 5.223 19.226 3.476 1.99-12.615-46.432-1.785-1.022z"/><path d="m0 0h2.71564v37.522h-2.71564z" transform="matrix(.867765 .496975 .262188 .965017 529.212 354.665)"/><path d="m0 0h2.71564v29.3512h-2.71564z" transform="matrix(.867765 .496975 .262188 .965017 542.262 402.698)"/><path d="m521.014 374.776-3.09-1.77 7.618 28.041 2.956 1.693 2.368 8.715 1.316.754-6.556-24.131-1.182-.677z"/><path d="m0 0h4.32767v65.9079h-4.32767z" transform="matrix(.867765 .496975 .262188 .965017 554.841 369.343)"/><path d="m556.19 382.368-3.411-1.953 3.911 14.395-2.398-1.373 5.197 19.127 3.41 1.954-3.582-13.184 2.399 1.374z"/><path d="m537.317 359.307 5.05 2.893 6.332 23.304.982.563 13.039 47.99-1.055-.604-8.635-31.785-3.48-1.993 5.304 19.522-5.05-2.892-7.695-28.324 3.551 2.034z"/></g><g opacity=".6"><path d="m195.394 163.941 13.625 42.236-10.337 39.485z" fill="url(#al)"/><path d="m195.394 163.941 13.625 42.236-10.337 39.485z" fill="url(#am)" fill-opacity=".64"/><path d="m198.683 245.671 10.542-40.467 23.301-6.728-33.843 47.187" fill="url(#an)"/><path d="m198.683 245.671 10.542-40.467 23.301-6.728-33.843 47.187" fill="url(#ao)" fill-opacity=".8"/><path d="m195.394 163.95 13.831 41.254 23.3-6.728z" fill="url(#ap)" opacity=".32"/><path d="m198.752 192.151 7.874 23.484 13.263-3.83z" fill="url(#aq)"/><path d="m198.764 204.281 6.089 18.163 10.259-2.963z" fill="url(#ar)"/><path d="m198.765 213.764 4.695 14.003 7.909-2.284z" fill="url(#as)"/><path d="m198.683 245.67-3.285-81.718 37.128 34.523-33.843 47.187" fill="url(#at)"/><path d="m198.683 245.67-3.285-81.718 37.128 34.523-33.843 47.187" fill="url(#au)" fill-opacity=".8"/><g fill="#ff5a5a" mask="url(#bi)"><path d="m220.893 152.804-6.544-4.676-6.19 30.743 4.918 3.513-3.626 18.01 3.345 2.39 8.756-43.495-1.717-1.227z"/><path d="m0 0h2.78745v34.5995h-2.78745z" transform="matrix(.81368 .581312 -.197365 .98033 225.832 156.333)"/><path d="m0 0h2.78745v27.0651h-2.78745z" transform="matrix(.81368 .581312 -.197365 .98033 216.773 201.327)"/><path d="m0 0h4.44209v60.7745h-4.44209z" transform="matrix(.81368 .581312 -.197365 .98033 250.499 173.955)"/><path d="m245.266 185.765-3.283-2.345-2.715 13.484-2.308-1.649-3.607 17.918 3.282 2.345 2.486-12.35 2.309 1.65z"/><path d="m233.633 161.906 4.861 3.472-4.395 21.831.945.675-9.05 44.954-1.015-.725 5.994-29.774-3.349-2.392-3.681 18.287-4.861-3.473 5.342-26.533 3.418 2.442z"/></g></g><g opacity=".3"><path d="m343.73 86.1514-16.818 15.6416 16.818 15.642 16.819-15.642z" fill="#e3d5f5"/><path d="m343.73 97.2026-9.936 9.2414 9.936 9.24 9.936-9.24z" fill="#ff7080"/><path d="m344.893 101.906-7.379 6.863 7.379 6.862 7.379-6.862z" fill="#ff334a"/><path d="m326.912 101.793 16.818 15.642 2.432-5.013z" fill="url(#aw)" fill-opacity=".65"/><path d="m326.912 101.793 16.818 15.642 2.432-5.013z" fill="url(#ax)"/><path d="m343.73 86.1514-16.818 15.6416 19.268 10.644z" fill="url(#ay)"/><path d="m343.73 86.1514-16.818 15.6416 19.268 10.644z" fill="url(#az)" fill-opacity=".64"/><path d="m343.73 86.1513 2.449 26.2877 14.37-10.646z" fill="url(#aA)"/><path d="m343.73 86.1513 2.449 26.2877 14.37-10.646z" fill="url(#aB)" fill-opacity=".65"/><path d="m343.73 86.1513 2.449 26.2877 14.37-10.646z" fill="url(#aC)" fill-opacity=".64"/><path d="m345.714 112.571-2.613 5.41 18.078-16.809z" fill="url(#aD)" fill-opacity=".65"/><path d="m345.714 112.571-2.613 5.41 18.078-16.809z" fill="url(#aE)"/></g><g opacity=".5"><path d="m442.338 143.29-35.452 32.972 35.452 32.972 35.452-32.972z" fill="url(#aF)" fill-opacity=".2"/><path d="m444.732 207.362-37.846-31.1 51.593 69.754z" fill="url(#aG)"/><path d="m444.732 207.362-37.846-31.1 51.593 69.754z" fill="url(#aH)"/><path d="m444.732 207.362-37.846-31.1 51.593 69.754z" fill="url(#aI)" fill-opacity=".65"/><path d="m444.556 207.042 33.234-30.78-19.354 69.728z" fill="url(#aJ)"/><path d="m444.556 207.042 33.234-30.78-19.354 69.728z" fill="url(#aK)" fill-opacity=".65"/><path d="m444.556 207.042 33.234-30.78-19.354 69.728z" fill="url(#aL)" fill-opacity=".64"/><path d="m448.012 179.942-20.558 19.12 20.558 19.12 5.293-4.923-5.21-33.241z" fill="url(#aM)"/><path d="m450.455 195.42-15.74 14.639 15.74 14.64 4.052-3.769-3.989-25.451z" fill="url(#aN)"/><path d="m452.592 209.279-11.408 10.611 11.408 10.61 2.98-2.771-2.877-18.354z" fill="url(#aO)"/><path d="m448.095 180.019 5.21 33.24 15.265-14.197z" fill="url(#aP)"/><path d="m450.518 195.479 3.989 25.451 11.688-10.87z" fill="url(#aQ)"/><path d="m452.696 209.375 2.877 18.354 8.429-7.839z" fill="url(#aR)"/><path d="m442.338 143.29 35.452 32.972-19.354 69.728z" fill="url(#aS)"/><g fill-opacity=".65"><path d="m442.338 143.29 35.452 32.972-19.354 69.728z" fill="url(#aT)"/><path d="m406.886 176.262 35.452-32.972 16.097 102.7z" fill="url(#aU)"/><path d="m406.886 176.262 35.452-32.972 16.097 102.7z" fill="url(#aV)"/></g><g fill="#44507b" mask="url(#bj)"><path d="m481.619 146.215-.965-1.017-.401 5.289-1.821-1.918-1.813 23.888 2.117 2.232.402-5.289.668.704z"/><path d="m477.18 177.368-3.977-4.191-1.38 18.177 1.78 1.875.967-12.743 2.197 2.315z"/><path d="m476.139 146.151-3.621-3.816-.691 9.1-.354-.373-1.355 17.857.739.779.885-11.663 3.236 3.41z"/><path d="m492.333 164.078-4.661-4.912-2.123 27.959 3.503 3.691-1.243 16.379 2.382 2.511 3.003-39.557-1.224-1.289z"/><path d="m0 0h2.3469v30.9364h-2.3469z" transform="matrix(.688342 .725386 -.0756921 .997131 495.852 167.786)"/><path d="m0 0h2.3469v24.1997h-2.3469z" transform="matrix(.688342 .725386 -.0756921 .997131 492.746 208.707)"/><path d="m482.86 181.124-2.118-2.232-1.813 23.888 2.026 2.136-.564 7.424.903.951 1.561-20.557-.811-.855z"/><path d="m0 0h3.74003v54.3403h-3.74003z" transform="matrix(.688342 .725386 -.0756921 .997131 513.421 186.301)"/><path d="m510.706 196.788-2.338-2.463-.931 12.263-1.644-1.732-1.237 16.295 2.338 2.464.852-11.232 1.644 1.733z"/><path d="m501.408 173.641 3.462 3.648-1.507 19.854.674.71-3.104 40.883-.723-.762 2.056-27.078-2.385-2.513-1.263 16.631-3.462-3.648 1.832-24.131 2.434 2.566z"/></g><g fill="#818db6" mask="url(#bk)"><path d="m416.927 165.978-6.802 4.292 12.122 28.922 5.111-3.224 7.101 16.943 3.477-2.194-17.15-40.919-1.786 1.127z"/><path d="m0 0h2.78745v34.5995h-2.78745z" transform="matrix(.845728 -.533615 .38655 .922268 422.062 162.74)"/><path d="m0 0h2.78745v27.0651h-2.78745z" transform="matrix(.845728 -.533615 .38655 .922268 439.803 205.069)"/><path d="m0 0h4.44209v60.7745h-4.44209z" transform="matrix(.845728 -.533615 .38655 .922268 447.699 146.563)"/><path d="m477.859 127.534-2.261 1.426 14.101 33.646 1.876-1.183 4.493 10.719 2.842-1.794-7.918-18.891-2.457 1.55z"/><path d="m450.464 160.987-3.411 2.152 5.317 12.686-2.4 1.514 7.065 16.857 3.412-2.153-4.869-11.618 2.399-1.514z"/><path d="m0 0h5.46842v16.5716h-5.46842z" transform="matrix(.845728 -.533615 .38655 .922268 458.668 148.936)"/><path d="m0 0h1.91366v16.5716h-1.91366z" transform="matrix(.845728 -.533615 .38655 .922268 474.343 177.266)"/><path d="m473.12 143.408.998-.629 14.953 35.675-.748.472 6.11 14.577-3.598 2.27-10.74-25.624-4.625 2.918-8.127-19.39 4.625-2.918 3.679 8.778 3.348-2.112z"/><path d="m430.17 157.624 5.052-3.188 8.608 20.538.983-.621 17.725 42.292-1.055.666-11.74-28.011-3.48 2.196 7.21 17.204-5.052 3.188-10.462-24.961 3.553-2.242z"/></g></g><g opacity=".8"><path d="m241.514 507.323-23.228 21.603 23.228 21.602 23.227-21.602z" fill="url(#aY)" fill-opacity=".32"/><path d="m240.856 578.499 23.886-49.574-23.622 19.974z" fill="#fff"/><path d="m240.856 578.499.264-29.6-22.828-19.974z" fill="#fff"/><path d="m228.402 545.909 12.865-11.965.008.008 12.857 11.957-12.865 11.965-.129-.12v.001z" fill="url(#aZ)"/><path d="m232.048 555.153 9.22-8.575.002.002 9.218 8.573-9.22 8.574-.155-.144v-.006z" fill="#ff0420"/><path d="m241.065 556.577 6.331 5.889-6.331 5.888-6.332-5.888 6.325-5.883z" fill="url(#a0)"/><path d="m240.856 578.499 23.886-49.573-23.228-21.603z" fill="url(#a1)"/><path d="m240.856 578.499 23.886-49.573-23.228-21.603z" fill="url(#a2)"/><path d="m240.856 578.499 23.886-49.573-23.228-21.603z" fill="url(#a3)" fill-opacity=".64"/><path d="m218.286 528.926 22.57 49.573.658-71.176z" fill="url(#a4)"/><path d="m218.286 528.926 22.57 49.573.658-71.176z" fill="url(#a5)" fill-opacity=".64"/><g fill="#7690ae" mask="url(#bl)"><path d="m256.925 529.047-3.199-4.074-2.938 22.005 2.403 3.06-1.721 12.891 1.636 2.082 4.156-31.132-.84-1.069z"/><path d="m0 0h1.79514v24.4933h-1.79514z" transform="matrix(.617655 .786449 -.132342 .991204 259.34 532.121)"/><path d="m0 0h1.79514v19.1596h-1.79514z" transform="matrix(.617655 .786449 -.132342 .991204 255.04 564.326)"/><path d="m0 0h2.86075v43.0229h-2.86075z" transform="matrix(.617655 .786449 -.132342 .991204 271.398 547.475)"/><path d="m285.583 565.536-1.063-1.354-3.418 25.598.882 1.124-1.089 8.155 1.337 1.702 1.919-14.373-1.156-1.471z"/><path d="m268.88 555.65-1.605-2.043-1.289 9.652-1.128-1.437-1.712 12.825 1.604 2.043 1.18-8.839 1.129 1.437z"/><path d="m0 0h3.52171v11.7312h-3.52171z" transform="matrix(.617655 .786449 -.132342 .991204 274.361 557.79)"/><path d="m0 0h1.23241v11.7312h-1.23241z" transform="matrix(.617655 .786449 -.132342 .991204 272.705 582.587)"/><path d="m280.311 567.893.469.598-3.624 27.142-.352-.447-1.481 11.09-1.692-2.155 2.603-19.495-2.175-2.77 1.969-14.752 2.176 2.77-.892 6.678 1.575 2.005z"/><path d="m263.153 536.976 2.377 3.026-2.087 15.625.463.589-4.296 32.176-.497-.631 2.846-21.312-1.637-2.084-1.748 13.089-2.376-3.025 2.536-18.991 1.67 2.127z"/></g><g fill="#7195aa" mask="url(#bm)"><path d="m236.092 555.829-3.686 3.979.848 22.156 2.77-2.99.496 12.979 1.884-2.034-1.199-31.345-.968 1.044z"/><path d="m0 0h1.87973v24.4626h-1.87973z" transform="matrix(.679544 -.733635 .0382484 .999268 238.874 552.826)"/><path d="m0 0h1.87973v19.1356h-1.87973z" transform="matrix(.679544 -.733635 .0382484 .999268 240.115 585.252)"/><path d="m230.862 582.125-1.674 1.808.724 18.931 1.602-1.73.225 5.883.714-.77-.623-16.291-.641.692z"/><path d="m0 0h2.99556v42.9689h-2.99556z" transform="matrix(.679544 -.733635 .0382484 .999268 252.766 537.828)"/><path d="m251.736 549.141-1.849 1.996.372 9.718-1.3 1.403.494 12.913 1.849-1.996-.341-8.9 1.3-1.403z"/><path d="m243.268 548.083 2.737-2.956.602 15.733.533-.575 1.24 32.397-.571.617-.822-21.457-1.886 2.036.505 13.179-2.738 2.955-.732-19.121 1.925-2.078z"/></g></g><path d="m89.1605 189.287-30.4886 28.356 30.4886 28.356 30.4885-28.356z" fill="#f3d1ff" opacity=".3"/><path d="m360.65 164.597-15.553 14.466 15.553 14.466 15.554-14.466z" fill="#ffeafd"/><path d="m271.749 141.298-13.302 12.371 13.302 12.372 13.302-12.372z" fill="#fff"/><path d="m510.912 242.333-30.488 28.356 30.488 28.356 30.489-28.356z" fill="#f5e3f9"/><g fill="#fff"><path d="m248.75 93.1496-8.626 8.0234 8.627 8.023 8.626-8.023z"/><path d="m296.603 85.2233-5.86 5.4496 5.86 5.4496 5.859-5.4496z"/><path d="m269.665 72.116-2.888 2.6858 2.888 2.6859 2.888-2.6858z"/><path d="m415.518 271.216h-5.008v5.009h5.008z" opacity=".14"/><path d="m422.028 149.502h-3.005v3.005h3.005z" opacity=".25"/><path d="m413.014 371.391h-2.504v2.504h2.504z" opacity=".14"/><path d="m75.4581 360.372h-3.005v3.005h3.005z" opacity=".12"/><path d="m222.2 271.716c1.106 0 2.003-.897 2.003-2.003 0-1.107-.897-2.004-2.003-2.004-1.107 0-2.004.897-2.004 2.004 0 1.106.897 2.003 2.004 2.003z" opacity=".25"/><path d="m534.713 403.948c1.107 0 2.004-.897 2.004-2.004 0-1.106-.897-2.003-2.004-2.003-1.106 0-2.003.897-2.003 2.003 0 1.107.897 2.004 2.003 2.004z" opacity=".25"/><path d="m480.124 195.082c.553 0 1.001-.448 1.001-1.002 0-.553-.448-1.001-1.001-1.001s-1.002.448-1.002 1.001c0 .554.449 1.002 1.002 1.002z" opacity=".15"/><path d="m181.633 174.045c.553 0 1.001-.449 1.001-1.002s-.448-1.002-1.001-1.002c-.554 0-1.002.449-1.002 1.002s.448 1.002 1.002 1.002z" opacity=".25"/><path d="m478.621 355.363c.553 0 1.001-.448 1.001-1.002 0-.553-.448-1.002-1.001-1.002s-1.002.449-1.002 1.002c0 .554.449 1.002 1.002 1.002z" opacity=".25"/><path d="m183.135 232.648c.554 0 1.002-.449 1.002-1.002s-.448-1.002-1.002-1.002c-.553 0-1.001.449-1.001 1.002s.448 1.002 1.001 1.002z" opacity=".25"/><path d="m119.03 412.463c.553 0 1.002-.449 1.002-1.002s-.449-1.002-1.002-1.002-1.002.449-1.002 1.002.449 1.002 1.002 1.002z" opacity=".25"/><path d="m187.142 368.887.594 1.507c.524 1.331 1.577 2.383 2.904 2.907l1.51.598-1.51.598c-1.327.524-2.38 1.576-2.904 2.908l-.594 1.507-.594-1.507c-.524-1.332-1.576-2.384-2.904-2.908l-1.51-.598 1.51-.598c1.328-.524 2.38-1.576 2.904-2.907z" opacity=".25"/><path d="m204.67 139.485.356.904c.315.798.946 1.43 1.743 1.744l.906.359-.906.359c-.797.314-1.428.946-1.743 1.744l-.356.905-.356-.905c-.315-.798-.946-1.43-1.743-1.744l-.906-.359.906-.359c.797-.314 1.428-.946 1.743-1.744z" opacity=".25"/><path d="m410.008 202.094.356.904c.315.799.946 1.43 1.742 1.745l.907.359-.907.358c-.796.315-1.427.946-1.742 1.745l-.356.904-.357-.904c-.314-.799-.945-1.43-1.742-1.745l-.906-.358.906-.359c.797-.315 1.428-.946 1.742-1.745z" opacity=".25"/><path d="m333.382 87.8942.179.4517c.157.3991.472.7145.871.8717l.453.1792-.453.1792c-.399.1572-.714.4726-.871.8717l-.179.4517-.178-.4517c-.157-.3991-.473-.7145-.871-.8717l-.453-.1792.453-.1792c.398-.1572.714-.4726.871-.8717z" opacity=".15"/><path d="m266.272 459.546.178.452c.157.399.473.714.871.871l.453.18-.453.179c-.398.157-.714.472-.871.871l-.178.452-.178-.452c-.157-.399-.473-.714-.871-.871l-.453-.179.453-.18c.398-.157.714-.472.871-.871z" opacity=".15"/><path d="m350.41 235.152.713 1.808c.629 1.598 1.892 2.86 3.485 3.49l1.812.717-1.812.717c-1.593.629-2.856 1.892-3.485 3.489l-.713 1.809-.712-1.809c-.63-1.597-1.892-2.86-3.485-3.489l-1.813-.717 1.813-.717c1.593-.63 2.855-1.892 3.485-3.49z" opacity=".5"/></g></g><path d="m694.151 757.429-354.202-738.0003-23.798 5.4962 153.693 732.5041z" fill="#fff" opacity=".3"/></g></g></svg>